<?xml version="1.0" encoding="utf-8"?>
<!-- Generator: Adobe Illustrator 26.0.2, SVG Export Plug-In . SVG Version: 6.00 Build 0)  -->
<svg version="1.1" id="Layer_1" xmlns="http://www.w3.org/2000/svg" xmlns:xlink="http://www.w3.org/1999/xlink" x="0px" y="0px"
	 viewBox="0 0 841.89 595.28" style="enable-background:new 0 0 841.89 595.28;" xml:space="preserve">
<style type="text/css">
	.st0{fill:#FFFFFF;}
</style>
<path class="st0" d="M481.17,422.35c3.7-11.09,12.56-13.98,21.51-16.37c18.16-4.86,36.77-5.07,55.4-4.58
	c13,0.34,25.92,1.52,38.43,5.35c2.85,0.87,5.64,2.01,8.3,3.36c6.65,3.36,10.06,8.28,10.01,16.35c-0.29,44.95-0.24,89.91-0.05,134.86
	c0.03,7.32-3.08,12.09-9.11,15.44c-7.77,4.32-16.33,6.2-24.99,7.3c-24.16,3.06-48.33,3.33-72.31-1.42
	c-6.27-1.24-12.42-3.68-18.24-6.39c-5.86-2.73-8.7-7.75-8.49-14.57c0.29-9.33,0.07-18.68,0.07-28.52c-2.08,0-3.78,0-5.49,0
	c-128.12,0-256.25,0-384.37,0c-1.37,0-2.75,0.04-4.12-0.01c-7.12-0.3-11.1-5.69-9.08-12.59c7.63-26.08,15.34-52.14,23.03-78.2
	c3.56-12.08,7.26-24.11,10.66-36.23c0.96-3.43,1.48-7.1,1.49-10.66c0.09-59.94,0.06-119.88,0.06-179.82
	c0-9.56,2.89-12.43,12.56-12.43c111.64,0,223.28,0,334.92,0c0.62,0,1.25-0.01,1.87,0.01c7.41,0.2,10.69,3.49,10.7,10.91
	c0.03,21.1,0.01,42.21,0.01,63.31c0,37.46,0.1,74.93-0.08,112.39c-0.03,7.23,0.73,14.12,3.41,20.85
	C478.68,414.17,479.69,417.85,481.17,422.35z M455.36,393.01c0-57.18,0-114.04,0-171.03c-107.73,0-215.24,0-322.79,0
	c0,57.17,0,114.04,0,171.03C240.2,393.01,347.55,393.01,455.36,393.01z M99.69,514.3c127.6,0,254.65,0,382.01,0
	c0-5.5,0.19-10.73-0.04-15.95c-0.35-7.88,0.39-15.64-2.5-23.55c-7.13-19.54-13.28-39.45-19.65-59.27c-0.93-2.89-2.22-3.73-5.24-3.73
	c-106.89,0.09-213.78,0.09-320.68,0.01c-2.88,0-3.98,0.84-4.79,3.64c-5.82,20.25-11.85,40.43-17.82,60.63
	C107.25,488.74,103.5,501.39,99.69,514.3z M500.1,545.94c0,3.96,0.25,7.59-0.07,11.17c-0.31,3.45,1.07,5.08,4.3,5.58
	c0.85,0.13,1.67,0.5,2.51,0.7c20.74,4.9,41.76,5.3,62.82,3.2c7.89-0.79,15.68-2.69,23.47-4.31c1.14-0.24,2.81-1.7,2.88-2.69
	c0.31-4.44,0.14-8.92,0.14-13.56C563.99,552.75,532.24,552.82,500.1,545.94z M500.1,510.77c0,2.16,0,4.12,0,6.08
	c0,9.86-0.03,10,9.86,12.07c19.85,4.14,39.91,4.55,59.99,2.45c7.78-0.81,15.45-2.67,23.13-4.23c1.12-0.23,2.85-1.43,2.9-2.27
	c0.28-4.65,0.14-9.32,0.14-13.98C563.83,517.58,532.16,517.64,500.1,510.77z M500.1,475.6c0,2.19,0,4.06,0,5.92
	c0,9.98-0.04,10.15,9.71,12.2c20.1,4.22,40.41,4.57,60.75,2.43c7.65-0.81,15.2-2.68,22.75-4.27c1.06-0.22,2.65-1.53,2.7-2.42
	c0.27-4.56,0.13-9.14,0.13-13.8C563.97,482.49,532.3,482.43,500.1,475.6z M500.1,440.39c0,3.34,0,6.32,0,9.31
	c0,6.41-0.02,6.48,6.41,8.04c21.22,5.12,42.74,5.38,64.3,3.2c7.52-0.76,14.93-2.63,22.35-4.18c1.1-0.23,2.79-1.45,2.84-2.3
	c0.28-4.64,0.13-9.3,0.13-13.92C563.87,447.19,532.24,447.35,500.1,440.39z M585.15,423.35c-24.58-4.81-49.22-4.81-73.86-0.02
	C535.88,428.12,560.48,428.06,585.15,423.35z"/>
<path class="st0" d="M533.2,263.95c-4.44,5.64-8.74,11.4-13.4,16.85c-1.61,1.88-3.9,3.59-6.22,4.35c-3.76,1.22-7.68-0.69-9.67-3.97
	c-2.17-3.58-2.02-7.19,0.52-10.49c5.86-7.61,11.84-15.14,17.76-22.71c4.46-5.7,8.89-11.42,13.33-17.13
	c4.28-5.5,11.29-5.5,15.61,0.01c10.01,12.77,20.04,25.52,29.98,38.34c1.19,1.54,2.3,3.34,2.77,5.2c1.08,4.32-1.08,8.4-4.98,10.22
	c-3.89,1.82-8.28,0.9-11.14-2.61c-4.1-5.03-8.04-10.19-12.06-15.28c-0.76-0.97-1.57-1.9-3.16-3.81c0,2.3,0,3.55,0,4.81
	c0,27.71,0.01,55.43-0.03,83.14c0,1.84-0.1,3.79-0.69,5.5c-1.35,3.97-5.46,6.37-9.42,5.88c-4.19-0.52-7.43-3.54-8.04-7.69
	c-0.25-1.72-0.25-3.48-0.25-5.23c-0.01-26.96-0.01-53.93-0.01-80.89c0-1.42,0-2.83,0-4.25C533.8,264.12,533.5,264.03,533.2,263.95z"
	/>
<path class="st0" d="M728.56,227.78c0,1.72,0,3.06,0,4.39c0,11.24,0,22.48,0,33.72c0,6.57-3.74,10.77-9.63,10.81
	c-6.09,0.04-9.85-4.15-9.85-11.02c0-11.11,0-22.23,0-33.34c0-1.35,0-2.71,0-4.55c-1.62,0-2.95,0-4.28,0
	c-11.49,0-22.98,0.02-34.47-0.01c-6.08-0.01-9.99-3.8-10-9.59c-0.01-5.93,4.01-9.85,10.18-9.86c11.36-0.02,22.73-0.01,34.09-0.01
	c1.35,0,2.7,0,4.48,0c0-1.78,0-3.24,0-4.7c0-11.36-0.02-22.73,0.01-34.09c0.02-5.88,4.04-9.96,9.72-9.96
	c5.82-0.01,9.73,3.92,9.74,9.88c0.03,11.49,0.01,22.98,0.01,34.47c0,1.34,0,2.68,0,4.4c3.84,0,7.31,0,10.77,0
	c9.37,0,18.73-0.02,28.1,0.01c5.86,0.02,9.96,4.06,9.98,9.73c0.02,5.78-3.95,9.7-9.93,9.72c-11.49,0.03-22.98,0.01-34.47,0.01
	C731.67,227.78,730.32,227.78,728.56,227.78z"/>
<path class="st0" d="M617.7,142.22c0,12.57,0.04,24.55-0.02,36.53c-0.02,4.35-2.78,7.47-7.08,8.35c-3.66,0.76-8.45-1.69-9.68-5.33
	c-0.62-1.83-0.63-3.91-0.64-5.88c-0.06-9.74-0.03-19.48-0.03-29.23c0-1.34,0-2.68,0-4.44c-1.78,0-3.11,0-4.45,0
	c-10.49,0-20.98,0.02-31.47-0.01c-5.08-0.01-8.62-3.31-8.84-8.13c-0.22-4.98,3.1-9.04,8.18-9.16c10.73-0.26,21.48-0.28,32.21-0.13
	c3.32,0.05,4.53-0.72,4.46-4.3c-0.23-10.61-0.21-21.23,0.04-31.84c0.17-7.3,7.42-10.96,13.62-7.1c2.63,1.64,3.77,4.11,3.75,7.26
	c-0.06,10.37-0.02,20.73-0.01,31.1c0,1.37,0,2.73,0,4.57c1.48,0.09,2.78,0.23,4.09,0.23c10.12,0.02,20.23,0.04,30.35,0
	c4.28-0.02,7.82,1.04,9.69,5.4c2.51,5.87-1.34,12.05-7.73,12.09c-10.62,0.07-21.23,0.02-31.85,0.02
	C620.92,142.22,619.58,142.22,617.7,142.22z"/>
<path class="st0" d="M697.98,27.59c0,8.33-0.04,16.16,0.02,23.99c0.02,3.26-1.23,5.62-4.4,6.57c-4.09,1.22-7.69-1.59-7.76-6.11
	c-0.11-6.61-0.03-13.22-0.03-19.84c0-1.35,0-2.7,0-4.61c-4.22,0-8.17,0-12.11,0c-4.24,0-8.49,0.09-12.72-0.05
	c-3.53-0.11-5.91-2.6-5.98-5.91c-0.08-3.46,2.37-6.12,6.07-6.19c6.74-0.12,13.47-0.04,20.21-0.05c1.35,0,2.7,0,4.53,0
	c0-5.27,0-10.22,0-15.16c0-2.74-0.02-5.49,0-8.23c0.04-4.66,2.24-7.37,6-7.42c3.83-0.05,6.14,2.63,6.16,7.25
	c0.03,6.49,0,12.98,0.02,19.46c0,1.22,0.11,2.44,0.19,4.1c7.03,0,13.85,0,20.68,0c1.37,0,2.75-0.06,4.12,0.04
	c3.53,0.26,5.81,2.68,5.8,6.07c-0.01,3.37-2.32,5.95-5.83,6.03c-6.48,0.14-12.97,0.05-19.46,0.06
	C701.86,27.59,700.25,27.59,697.98,27.59z"/>
<path class="st0" d="M205.72,319.81c-13.61,0-27.22,0.02-40.84-0.01c-7.14-0.01-10.74-3.38-10.77-10.44
	c-0.08-19.48-0.09-38.96,0-58.45c0.03-6.83,3.67-10.37,10.53-10.38c27.35-0.05,54.7-0.04,82.05-0.01
	c7.13,0.01,10.67,3.5,10.69,10.54c0.05,19.48,0.06,38.96,0,58.45c-0.02,6.9-3.52,10.27-10.45,10.29
	C233.19,319.83,219.45,319.81,205.72,319.81z M172.72,301c22.18,0,44.06,0,66.09,0c0-14.06,0-27.85,0-41.72
	c-22.14,0-44.04,0-66.09,0C172.72,273.2,172.72,286.89,172.72,301z"/>
</svg>
