<?xml version="1.0" encoding="utf-8"?>
<!-- Generator: Adobe Illustrator 26.0.2, SVG Export Plug-In . SVG Version: 6.00 Build 0)  -->
<svg version="1.1" id="Layer_1" xmlns="http://www.w3.org/2000/svg" xmlns:xlink="http://www.w3.org/1999/xlink" x="0px" y="0px"
	 viewBox="0 0 239.98 240" style="enable-background:new 0 0 239.98 240;" xml:space="preserve">
<style type="text/css">
	.st0{fill:#ffffff;}
	.st1{fill:#2B51A8;}
	.st2{fill:#318BCA;}
	.st3{fill:#27A2D5;}
	.st4{fill:#22A8DA;}
	.st5{fill:#1B70AF;}
	.st6{fill:#29A0D2;}
	.st7{fill:#318CCA;}
	.st8{fill:#23ACDD;}
	.st9{fill:#2794C9;}
	.st10{fill:#23AFDF;}
	.st11{fill:#2789C3;}
	.st12{fill:#2983BD;}
	.st13{fill:#13428C;}
	.st14{fill:#289ACD;}
	.st15{fill:#1666A4;}
	.st16{fill:#176FAC;}
	.st17{fill:#2079B5;}
	.st18{fill:#2AAFE1;}
	.st19{fill:#1A5A9E;}
	.st20{fill:#337DAA;}
	.st21{fill:#36A3D7;}
	.st22{fill:#2FA2CE;}
	.st23{fill:#39A6DD;}
	.st24{fill:#3A8DB9;}
	.st25{fill:#E1EDF2;}
	.st26{fill:#2771A6;}
	.st27{fill:#1A76B1;}
	.st28{fill:#3685B6;}
	.st29{fill:#26447F;}
	.st30{fill:#12ACDC;}
	.st31{fill:#1A4C93;}
	.st32{fill:#4281AF;}
	.st33{fill:#3C5083;}
	.st34{fill:#1E74B3;}
	.st35{fill:#0B64A2;}
	.st36{fill:#3C9AD6;}
	.st37{fill:#268EC5;}
	.st38{fill:#257EB9;}
	.st39{fill:#185799;}
	.st40{fill:#15468F;}
	.st41{fill:#59A8E0;}
	.st42{fill:#227CB7;}
	.st43{fill:#2886BB;}
	.st44{fill:#FFFFFF;}
</style>
<g>
	<g>
		<path class="st0" d="M0,120C0,80.37,0,40.73-0.02,1.1c0-0.9,0.2-1.1,1.1-1.1c79.27,0.02,158.53,0.02,237.8,0
			c0.9,0,1.1,0.2,1.1,1.1c-0.02,79.27-0.02,158.53,0,237.8c0,0.9-0.2,1.1-1.1,1.1c-79.27-0.02-158.53-0.02-237.8,0
			c-0.9,0-1.1-0.2-1.1-1.1C0,199.27,0,159.63,0,120z"/>
		<path class="st1" d="M91.11,132.59c-3.75,0-7.5,0.03-11.26-0.01c-1.64-0.02-2.05-0.69-1.47-2.23c0.18-0.48,0.36-0.96,0.56-1.43
			c0.39-0.92,0.97-1.4,2.09-1.38c4.75,0.07,9.5,0.03,14.25,0.02c1.22,0,1.38-0.28,0.9-1.43c-1.48-3.51-2.94-7.02-4.43-10.53
			c-0.13-0.3-0.2-0.77-0.67-0.73c-0.38,0.04-0.58,0.36-0.72,0.72c-1.02,2.6-2.36,5.06-3.19,7.73c-0.68,2.18-3.46,3.3-5.5,2.24
			c-0.75-0.39-0.79-1.04-0.5-1.75c0.86-2.09,1.72-4.18,2.61-6.26c1.31-3.06,2.66-6.1,3.97-9.17c0.64-1.5,0.98-1.76,2.59-1.74
			c3.26,0.06,3.23,0.07,4.52,3.1c1.62,3.78,3.32,7.53,4.93,11.31c1.21,2.84,2.36,5.7,3.5,8.57c0.1,0.25,0.29,0.35,0.41,0.54
			c0.75,1.15,0.15,2.38-1.22,2.4c-3.79,0.03-7.58,0.01-11.37,0.01C91.11,132.58,91.11,132.58,91.11,132.59z"/>
		<path class="st2" d="M172.95,132.58c-3.72,0-7.43,0.01-11.15-0.01c-1.52-0.01-2.05-0.85-1.44-2.27c1.38-3.19,0.74-2.71,4.11-2.74
			c4.27-0.03,8.55,0,12.82-0.01c1.17,0,1.31-0.24,0.87-1.33c-1.39-3.53-3.08-6.93-4.33-10.52c-0.14-0.39-0.23-0.87-0.83-0.87
			c-0.61,0-0.68,0.5-0.84,0.87c-1.26,2.98-2.5,5.98-3.74,8.97c-0.02,0.04-0.03,0.07-0.05,0.11c-0.59,1.11-1.7,0.83-2.63,0.9
			c-0.92,0.06-1.99,0.25-2.64-0.66c-0.3-0.42-0.09-0.98,0.12-1.48c1.43-3.3,2.85-6.62,4.26-9.93c0.76-1.78,1.52-3.56,2.26-5.34
			c0.53-1.28,1.18-1.7,2.54-1.57c0.04,0,0.08,0,0.12,0.01c0.95,0.18,2-0.4,2.85,0.39c1.03,0.95,1.29,2.31,1.84,3.51
			c1.02,2.19,2.2,4.34,2.89,6.64c0.58,1.9,1.79,3.49,2.23,5.46c0.31,1.36,1.22,2.59,1.77,3.92c0.57,1.38,1.2,2.73,1.64,4.16
			c0.33,1.09-0.18,1.79-1.32,1.79C180.54,132.59,176.75,132.58,172.95,132.58z"/>
		<path class="st2" d="M142.41,106.7c1.8,0.15,4.01-0.29,6.18,0.25c4.74,1.16,8.02,3.96,9.19,8.77c1.06,4.35,0.74,8.61-2.16,12.27
			c-2.24,2.83-5.21,4.49-8.89,4.58c-3.23,0.08-6.47,0.03-9.7,0.03c-1.29,0-1.8-0.52-1.82-1.78c-0.04-3.17-0.01-3.2,3.14-3.21
			c2.52,0,5.04-0.1,7.55,0.01c4.25,0.18,7.1-3.46,7.32-6.96c0.2-3.15-0.52-5.84-3.12-7.81c-1.32-1-2.88-1.3-4.5-1.3
			c-2.88-0.01-5.75,0.01-8.63-0.01c-1.51-0.01-1.75-0.26-1.76-1.73c-0.03-3.11-0.03-3.11,3.1-3.11
			C139.55,106.7,140.79,106.7,142.41,106.7z"/>
		<path class="st1" d="M63.77,106.66c1.72,0,3.43-0.02,5.15,0c4.59,0.07,8.16,3.04,8.51,8.18c0.18,2.71-0.53,5.16-2.49,7.02
			c-1.1,1.05-2.46,2.02-4.11,2.05c-2.69,0.04-5.37,0.55-8.08,0.07c-1-0.18-1.08,0.79-1.11,1.45c-0.08,1.31-0.07,2.64-0.01,3.95
			c0.03,0.73-0.27,1.4-0.3,2.11c-0.01,0.37-0.36,0.48-0.6,0.68c-1.34,1.14-3.89,0.34-4.17-1.35c-0.46-2.73-0.15-5.49-0.19-8.23
			c-0.05-3.21,0-3.19,3.24-3.21c2.75-0.02,5.5-0.01,8.24-0.2c1.45-0.1,3.04-0.12,4-1.65c0.87-1.38,0.67-2.71,0.06-4.07
			c-0.58-1.29-1.76-1.71-3-1.75c-3.43-0.09-6.87-0.05-10.3-0.06c-1.84,0-2.24-0.39-2.26-2.24c-0.01-0.48-0.02-0.96,0.05-1.43
			c0.13-0.83,0.52-1.35,1.5-1.32c1.95,0.05,3.91,0.02,5.87,0.02C63.77,106.69,63.77,106.68,63.77,106.66z"/>
		<path class="st1" d="M118.67,132.18c-0.85,0.67-3.38,0.88-4.3,0.39c-0.43-0.22-0.51-0.55-0.52-0.98
			c-0.01-3.35-0.02-6.7-0.04-10.05c0-0.54,0.18-1,0.49-1.43c2.78-3.98,5.53-7.98,8.32-11.95c1.15-1.63,3.74-2.24,5.57-1.4
			c0.73,0.33,0.94,1.18,0.42,2.04c-0.6,0.98-1.26,1.92-1.92,2.86c-2.33,3.33-4.68,6.65-7.01,9.98c-0.51,0.73-0.79,1.53-0.78,2.46
			c0.02,2.11-0.02,4.23-0.04,6.34C118.62,131,118.92,131.62,118.67,132.18z"/>
		<path class="st2" d="M196.29,126.71c0-1.24,0.07-2.48-0.01-3.71c-0.14-2.21,1.02-3.9,2.25-5.49c2.44-3.14,4.5-6.54,6.88-9.71
			c0.56-0.75,1.22-1.19,2.2-1.11c0.63,0.05,1.28,0.05,1.91,0c0.62-0.05,1.1,0.11,1.4,0.67c0.3,0.57,0.09,1.15-0.22,1.58
			c-1.69,2.32-3.35,4.67-4.94,7.04c-1.24,1.85-2.59,3.62-3.82,5.47c-0.45,0.67-0.6,1.45-0.59,2.28c0.02,2.39-0.04,4.79,0.04,7.18
			c0.03,0.92-0.51,1.4-1.12,1.6c-1.06,0.34-2.22,0.25-3.32,0.03c-0.61-0.12-0.61-0.76-0.61-1.28c-0.01-1.52,0-3.03,0-4.55
			C196.31,126.71,196.3,126.71,196.29,126.71z"/>
		<path class="st3" d="M13.89,126.61c-0.36-0.66-0.76-1.31-0.73-2.1c-0.11-1.9-0.89-3.71-0.81-5.64c0.01-0.3-0.13-0.64,0.2-0.9
			c0.55,0.23,0.57,0.82,0.81,1.24c0.46,0.81,0.93,0.95,1.62,0.38c1.1-0.92,2.38-1.24,3.77-1.26c1.87-0.02,3.75-0.01,5.62-0.01
			c0.94,0,1.82,0.02,2.74-0.51c0.73-0.42,1.77-0.53,2.51,0.32c-0.01,1.13-0.66,1.72-1.71,1.9c-0.69,0.12-0.87,0.38-0.32,0.89
			c0.4,0.37,0.4,0.73,0.11,1.15c-0.46,1.04-0.13,2.24-0.72,3.27c-0.27,0.46,0.43,1.25-0.44,1.6c-1.05-0.22-0.65-1.01-0.6-1.62
			c0.04-0.51,0.48-0.93,0.4-1.54c-1.16,0.73-2.41,0.51-3.64,0.39c-0.64-0.06-1.27-0.13-1.91-0.15c-0.9-0.03-1.77-0.12-2.02,1.09
			c-0.07,0.34-0.48,0.56-0.86,0.55c-0.44-0.01-0.53-0.37-0.64-0.74c-0.24-0.78-1.08-0.33-1.59-0.69c-0.35-0.25-0.61,0.33-0.75,0.71
			C14.7,125.58,14.61,126.29,13.89,126.61z"/>
		<path class="st4" d="M13.89,126.61c0.31-0.68,0.71-1.31,0.78-2.11c0.05-0.59,0.62-0.97,1.14-0.74c0.58,0.26,0.96,0.84,1.59,0.03
			c0.12-0.16,0.32,0.3,0.24,0.59c-0.12,0.41-0.37,0.98,0.26,1.04c0.42,0.04,0.86-0.38,0.8-0.99c-0.07-0.72,0.28-0.75,0.93-0.77
			c1.68-0.04,3.32,0.32,4.99,0.3c0.72-0.01,1.34-0.05,1.61-0.9c0.61,0.59,0.67,1.04,0.24,1.73c-0.39,0.61-0.85,1.42,0.13,2.03
			c1.14,0.8,0.83,1.91,0.63,3c-0.91,0.11-1.74-0.35-2.67-0.32c-1.93,0.06-3.88,0.22-5.81-0.12c-0.66-0.12-0.66,0.41-0.85,0.77
			c-0.33,0.64-0.81,0.77-1.07,0.05c-0.29-0.81-1.1-0.29-1.46-0.74C14.76,128.58,14.18,127.67,13.89,126.61z"/>
		<path class="st5" d="M26.23,104.26c1.43-0.86,2.84-1.68,4.62-1.67c2.13,0.02,3.81,0.81,5.09,2.48c0.33,0.32-0.07,0.83,0.29,1.15
			c0.02,0.23,0.03,0.45,0.05,0.68c-0.1,0.1-0.22,0.13-0.36,0.11c-2.62-0.19-5.23-0.88-7.87-0.17c-1.11,0.3-2.18-0.31-3.3-0.07
			c-0.49,0.11-1.03,0.03-1.54,0.02c-1.46-0.04-2.92-0.08-4.25,0.68c-0.11-0.04-0.22-0.1-0.3-0.18c-0.37-0.76-0.65-0.94-0.79-0.63
			c-0.27,0.63-0.92,0.06-1.22,0.49c-0.13,0.19-0.31,0.36-0.5,0.51c-0.28,0.11-0.58,0.25-0.57-0.26c1.28-2.3,3.12-4.05,5.28-5.49
			c1.29-0.44,2.58-0.62,3.88-0.05l0.01-0.01C25.37,102.57,25.04,103.88,26.23,104.26z"/>
		<path class="st6" d="M29.48,118.44c-0.62-0.65-2.19-0.73-2.62-0.06c-0.28,0.43-0.52,0.39-0.96,0.38c-2.7-0.06-5.42-0.2-8.1,0.02
			c-0.86,0.07-2.12,0.09-2.69,1.34c-0.28,0.62-1.63,0.29-1.94-0.4c-0.12-0.25-0.23-0.51-0.33-0.77c-0.09-0.24-0.17-0.49-0.32-0.94
			c-0.33,2.37,1.08,4.34,0.64,6.5c-1.11-2.73-0.96-5.6-0.91-8.45c0-0.18,0.12-0.36,0.19-0.54c0.38,0.25,0.82,0.38,1.25,0.31
			c1.74-0.28,3.54,0.07,5.25-0.48c0.5-0.16,1.03-0.12,1.54-0.12c2.87,0,5.74,0.01,8.62-0.01c1.07-0.01,2.15,0.11,3.21-0.22
			c0.53-0.16,1,0.06,1.2,0.54c0.25,0.59-0.44,0.5-0.68,0.75c-0.5,0.84-1.48,1.07-2.17,1.67C30.27,118.12,30.01,118.62,29.48,118.44z
			"/>
		<path class="st7" d="M193.61,115.72c-1.63,0.31-2.71-0.38-3.57-1.75c-1.05-1.68-2.27-3.25-3.38-4.88
			c-0.32-0.47-0.8-0.95-0.42-1.62c0.38-0.67,0.96-0.9,1.71-0.8c0.31,0.04,0.65,0.06,0.95-0.02c1.58-0.44,2.63,0.23,3.48,1.5
			c1.23,1.85,2.54,3.65,3.78,5.5c0.61,0.9,0.19,1.81-0.88,1.97C194.73,115.69,194.16,115.69,193.61,115.72z"/>
		<path class="st1" d="M111.91,115.73c-1.59,0.36-2.64-0.51-3.5-1.79c-1.09-1.61-2.22-3.19-3.3-4.8c-0.32-0.47-0.83-0.96-0.47-1.61
			c0.35-0.64,0.93-0.89,1.69-0.92c1.17-0.05,2.33-0.32,3.36,0.56c0.17,0.15,0.56,0.09,0.71,0.35c1.1,1.98,2.68,3.61,3.86,5.53
			c0.87,1.42,0.12,2.67-1.55,2.68C112.47,115.74,112.23,115.73,111.91,115.73z"/>
		<path class="st8" d="M15.37,129.47c0.08,0,0.17,0.02,0.24-0.01c0.97-0.37,1.58-0.15,1.54,1.03c0.45-0.05,0.5-0.35,0.55-0.6
			c0.16-0.8,0.17-1.63,1.37-0.74c0.42,0.31,1.24,0.07,1.88,0.07c1.32,0,2.64,0.06,3.95-0.02c0.87-0.05,1.61,0.02,2.18,0.74
			c0.72,0.42,0.77,1.42,1.53,1.8c0.42,0.46,0.78,0.96,1,1.55c0.02,0.11,0.01,0.23-0.02,0.34c-0.04,0.07-0.12,0.19-0.15,0.17
			c-0.98-0.55-2.01,0.04-3.05-0.17c-0.85-0.17-1.87,0.25-2.49,1.08c-0.24,0.32-0.48,0.53-0.89,0.42c-0.32-0.09-0.48-0.34-0.38-0.64
			c0.1-0.31,0-0.3-0.21-0.19c-0.26,0.13-0.56-0.22-0.77,0.04c-0.13,0.16-0.06,0.38,0.13,0.52c0.29,0.22,0.65,0.35,0.86,0.64
			c0.31,0.44,0.47,0.86-0.38,0.68c-1.52-0.8-2.81-1.89-3.99-3.13c-0.67-1.09-1.42-2.12-2.45-2.91
			C15.51,130.04,15.42,129.77,15.37,129.47z"/>
		<path class="st9" d="M12.67,114.78c0.17-0.78,0.33-1.56,0.5-2.35c0.23,0.23,0.51,0.34,0.84,0.31c1.99-0.03,3.91,0.57,5.89,0.57
			c1,0,1.96-0.08,2.94-0.35c0.94-0.25,1.95-0.34,2.96-0.24c2.27,0.24,4.53,0.1,6.75-0.44c0.36-0.09,0.72-0.14,1.06,0
			c1.31,0.53,2.66,0.44,4,0.25c1.36-0.2,2.71,0.18,4.09-0.19c0.88-0.23,0.94,0.73,0.99,1.42c-0.15,0.66,0.23,1.48-0.56,1.95
			c-0.41,0.13-0.78,0.01-1.16-0.14c-0.16-0.02-0.32-0.04-0.48-0.05c-0.83-0.59-1.78-0.25-2.67-0.31c-0.6-0.04-1.17,0-1.69-0.41
			c-0.3-0.24-0.74-0.44-1.12-0.33c-2.88,0.83-5.75-0.2-8.63-0.01c-1.38,0.09-2.77-0.1-4.09,0.58c-0.66,0.34-1.5,0.2-2.25,0.11
			c-1.56-0.18-3.09-0.15-4.59,0.33c-0.28,0.09-0.59,0.12-0.81-0.06c-0.55-0.48-1.01-0.73-1.72-0.15
			C12.61,115.54,12.59,115.06,12.67,114.78z"/>
		<path class="st10" d="M22.27,136.19c0.19-0.04,0.43-0.05,0.37-0.33c-0.02-0.09-0.16-0.17-0.26-0.23c-0.7-0.46-1.62-0.79-1.09-2
			c0.48,0.03,0.79,0.72,1.44,0.44c0.39-0.17,0.28,0.14,0.13,0.37c-0.16,0.26-0.03,0.46,0.26,0.52c0.19,0.04,0.39,0.04,0.44-0.24
			c0.12-0.73,0.76-0.88,1.31-1.01c0.68-0.15,1.3-1.11,2.11-0.2c0.11,0.12,0.57,0.03,0.79-0.1c0.58-0.34,1.07-0.47,1.4,0.28
			c0.1-0.05,0.19-0.1,0.29-0.15c0.35-0.12,0.52,0.15,0.67,0.35c0.92,1.3,2.3,1.97,3.65,2.7c0.45,0.8,0.35,1.18-0.42,1.17
			c-1.18-0.01-2.28,0.15-3.33,0.71c-0.38,0.2-0.86,0.14-1.28-0.04c-0.64-0.28-1.34-0.15-1.99-0.32
			C25.13,137.81,23.68,137.05,22.27,136.19z"/>
		<path class="st11" d="M13.66,112.93c-0.6,0.27-0.45-0.21-0.49-0.49c-0.02-0.08,0-0.15,0.04-0.22c0.36-0.39,0.75-0.74,1.17-1.06
			c0.28-0.29,0.57-0.59,1.02-0.47c1.85,0.48,3.62-0.41,5.47-0.28c1.86,0.12,3.74,0.02,5.6,0.05c3.02,0.04,6.04-0.12,9.07-0.01
			c0.59,0.02,1.2,0.06,1.65-0.48c0.23-0.28,0.67-0.41,0.84-0.15c0.84,1.23,2.64-0.96,3.23,0.94c-0.15,0.41-0.25,0.84-0.45,1.23
			c-0.29,0.57-0.52,0.8-1.36,0.48c-0.77-0.3-1.77-0.79-2.75-0.2c-0.79,0.48-1.71,0.34-2.57,0.23c-1.3-0.17-2.57-0.43-3.87,0.01
			c-0.44,0.15-0.95,0.06-1.43,0.05c-4.85-0.04-9.69,0.03-14.53,0.17C14.07,112.72,13.84,112.74,13.66,112.93z"/>
		<path class="st12" d="M41.23,110.77c-0.43-0.48-0.83-1.03-1.48-0.25c-0.09,0.11-0.29,0.11-0.43,0.18
			c-0.72,0.37-1.28-1.63-2.26-0.07c-0.27,0.43-1.74,0.21-2.64,0.12c-0.96-0.1-1.89,0.04-2.84,0.03c-0.92-0.01-1.83,0-2.75,0
			c-0.96,0-1.91,0.01-2.87,0c-0.91-0.01-1.83-0.09-2.74-0.08c-1.55,0.01-3.1,0.06-4.65,0.08c-0.37,0.01-0.7,0.04-0.93,0.4
			c-0.16,0.26-0.59,0.44-0.71,0.28c-0.46-0.63-1.17-0.12-1.7-0.49c-0.44-0.31-0.33,0.7-0.85,0.53c-0.46-0.44-0.41-0.96-0.27-1.51
			c0.1-0.13,0.2-0.27,0.3-0.4c0.24-0.03,0.51,0.13,0.73-0.11c2.38-0.44,4.74,0.12,7.11,0.08c2.58-0.05,5.14-0.32,7.71-0.45
			c0.44-0.02,0.87-0.12,1.3-0.03c0.76,0.16,1.47,0.26,2.16-0.27c0.29-0.23,0.69-0.07,1.05-0.06c0.98,0.01,1.96,0.3,2.95,0.1
			c0.68-0.42,1.44,0.08,2.13-0.18c0.63,0.27,1.39,0.36,1.69,1.13c0.24,0.23,0.46,0.47,0.37,0.85c-0.05,0.1-0.12,0.18-0.23,0.21
			C41.33,110.82,41.28,110.79,41.23,110.77z"/>
		<path class="st13" d="M30.27,126.09c1.38,0.96,2.89,1.66,4.5,2.15c0.13,0.16,0.14,0.33,0.05,0.51c-0.14,0.13-0.31,0.17-0.5,0.15
			c-0.49-0.15-0.97-0.35-1.48-0.44c-0.42-0.1-0.79-0.35-1.05-0.44c0.28,2.2,0.98,4.36,1.5,6.57c0.26,0.36,0.67,0.51,0.99,0.79
			c0.25,0.22,0.45,0.48-0.01,0.71c-1.2,0.03-1.98-0.88-2.95-1.35c-0.64-0.35-1.12-0.88-1.58-1.43c-1.4-1.81-2.29-3.83-2.51-6.12
			c-0.01-0.59,0-1.18-0.01-1.76c0.1-0.5-0.01-1.07,0.43-1.47c0.34-0.18,0.5,0.04,0.6,0.3c0.22,0.59,0.7,0.89,1.24,1.12l-0.01-0.01
			C29.67,125.71,29.89,125.99,30.27,126.09z"/>
		<path class="st14" d="M12.67,114.78c0.37,0.82,0.44,0.15,0.49-0.12c0.14-0.77,0.71-0.59,0.92-0.26c0.58,0.92,0.95,0.8,2,0.46
			c0.88-0.28,2.19-0.39,3.35-0.17c1.2,0.23,2.5,0.55,3.63-0.42c0.2-0.17,0.61-0.15,0.92-0.14c2.02,0.08,4.04,0.01,6.07,0.15
			c1.54,0.11,3.2,0.7,4.74-0.2c0.37-0.22,0.67-0.08,0.97,0.17c1.08,0.9,2.35,0.91,3.66,0.85c0.39-0.02,0.92-0.22,1.08,0.43
			c-1.34-0.38-2.72-0.15-4.08-0.22c-0.14-0.05-0.32-0.3-0.41,0.05c-1.16-0.03-2,1.05-3.18,0.93c-0.22-0.46,0.96-0.14,0.42-0.72
			c-0.23-0.24-0.55-0.64-1-0.17c-0.31,0.32-0.76,0.16-1.15,0.16c-3.31,0.01-6.63,0-9.94,0.01c-1.02,0-2.04-0.13-2.99,0.45
			c-0.36,0.22-0.87,0.42-1.31-0.07c-0.12-0.14-0.5-0.2-0.67-0.12c-1,0.48-2.08,0.22-3.08,0.38s-0.56-0.38-0.68-0.69
			C12.45,115.25,12.44,114.98,12.67,114.78z"/>
		<path class="st15" d="M37.88,128.71c0.37,0,0.74,0,1.12,0.01c0.23-0.09,0.46-0.08,0.7-0.06c0.47,0.75,0.59,1.54,0.2,2.36
			c-0.31,0.65-0.23,1.11,0.44,1.49c0.81,0.46,0.93,1.14,0.44,1.93c-0.28,0.44-0.44,0.85,0.16,1.2c0.94,0.56,0.54,0.96-0.2,1.28
			c-0.51,0.22-1.03,0.39-1.58,0.15c-0.22-0.12-0.34-0.32-0.45-0.54c-0.13-0.31-0.4-0.47-0.67-0.65c-0.17-0.11-0.27-0.27-0.25-0.5
			c0.17-1.51-0.03-3.56-0.48-4.85c-0.21-0.62-0.5-1.24,0.6-1.33C38.29,129.17,37.51,128.9,37.88,128.71z"/>
		<path class="st16" d="M40.74,136.66c0.19-0.13,0.37-0.26,0.62-0.44c-0.18-0.12-0.32-0.28-0.5-0.32c-1.01-0.23-0.94-0.89-0.47-1.47
			c0.78-0.97,0.44-1.49-0.55-1.85c-0.47-0.17-0.7-0.62-0.5-0.93c0.62-0.92,0.27-1.93,0.44-2.89c0.23-0.12,0.54-0.01,0.73-0.26
			c0.13-0.01,0.26-0.02,0.39-0.02c0.84,0,1.65-0.67,2.52-0.12c-0.15,0.55-0.66,0.51-1.05,0.67c-0.39,0.07-0.65,0.23-0.66,0.69
			c-0.06,1.54,0.38,3.02,0.48,4.55c0.04,0.62,0.58,1.02,1.01,1.43c0.05,0.37-0.19,0.5-0.48,0.6
			C42.02,136.19,41.53,137.22,40.74,136.66z"/>
		<path class="st17" d="M39.56,108.65c0,0.19,0.39,0.68-0.13,0.5c-0.61-0.22-1.22-0.12-1.8-0.29c-1.1,0.23-2.17-0.16-3.24-0.23
			c-2.48-0.16-4.92,0.21-7.38,0.13c-2.07-0.06-4.12,0.27-6.19,0.21c-0.64-0.02-1.26,0.14-1.89,0.26c-0.56,0.11-1.16,0.19-1.25-0.64
			c0.65-0.6,1.46-0.81,2.3-0.78c3.27,0.14,6.53-0.28,9.8-0.27c1.07,0,2.13-0.24,3.2-0.3c0.71-0.25,1.53-0.04,2.19-0.58
			c0.3-0.24,0.58-0.02,0.76,0.27c0.11-0.01,0.21-0.02,0.32-0.03c0.07-0.02,0.12,0,0.14,0.07c0.36,0.3-0.15,0.89,0.37,1.14
			c0.05-0.02,0.1,0,0.13,0.05c0.71,0.28,1.48-0.08,2.18,0.21C39.25,108.46,39.4,108.55,39.56,108.65z"/>
		<path class="st18" d="M26.77,138.13c0.75-0.02,1.51-0.1,2.25,0.16c0.33,0.11,0.75,0.17,1.04-0.09c0.94-0.86,2.07-0.83,3.21-0.71
			c0.26,0.03,0.48,0.08,0.63-0.16c0.22-0.38-0.26-0.43-0.34-0.66c0.24-0.27,0.54-0.26,0.85-0.21c0.18,0.04,0.36,0.1,0.53,0.16
			c0.18,0.06,0.35,0.14,0.52,0.23c0.83,0.3,1.7,0.36,2.56,0.47c0.43,0.06,1.04,0,0.81,0.78c-2.51,0.67-5.04,1.21-7.66,0.91
			c0.38-0.64,0.98-0.21,1.47-0.28c0.43-0.07,0.88-0.08,1.08-0.03c-0.75,0.24-1.84-0.37-2.79,0.3
			C29.49,138.95,28.12,138.58,26.77,138.13z"/>
		<path class="st19" d="M37.88,128.71c0.19,0.46,0.74,0.14,1.03,0.44c-0.41,0.61-1.08,0.14-1.64,0.48c0.24,0.59,0.46,1.21,0.74,1.8
			c0.19,0.41,0.37,0.78,0.07,1.22c-0.33,0.48-0.12,1.05,0.17,1.31c0.84,0.74,0.62,1.15-0.29,1.4c0.1,0.59,1.19,0.22,0.86,1.07
			c-1.53,0.66-2.34,0.08-2.3-1.88c0.03-1.52-0.84-2.88-0.66-4.41c0.05-0.4-0.57-0.56-0.5-1.02c0.13-0.61,0.91-0.03,1.08-0.58
			C36.93,128.51,37.43,128.36,37.88,128.71z"/>
		<path class="st17" d="M33.32,107.42c-0.99,0.5-2.11,0.4-3.11,0.41c-3.09,0.05-6.17,0.47-9.26,0.3c-1.1-0.06-2.18,0.02-3.21,0.48
			c-0.58,0.47-1.37,0.33-2,0.66c-0.31,0.16-0.7,0.16-0.88,0.53c-0.32,0.26-0.24-0.25-0.44-0.23c0.15-0.85,0.59-1.55,1.15-2.19
			c0.15,0.25,0.32,0.28,0.49,0.02c0.88-0.03,1.73-0.46,2.64-0.24l0,0c0.08,0.14,0.2,0.31,0.35,0.28c1.6-0.37,3.24-0.18,4.86-0.27
			c2.8-0.16,5.62-0.19,8.43-0.11C32.69,107.08,33.05,107.12,33.32,107.42z"/>
		<path class="st20" d="M43.38,128.51c-0.82-0.66-1.66,0.32-2.48-0.03c1.39-0.7,2.84-0.77,4.27-0.22c1.43,0.54,2.12,2.07,1.64,3.52
			c-0.71,2.14-2.05,3.74-4.14,4.65c-0.08-0.05-0.11-0.11-0.09-0.16c0.03-0.06,0.05-0.09,0.08-0.09c0.23-0.09,0.39-0.25,0.48-0.48
			c0.03-0.28,0.19-0.48,0.35-0.69c0.34-0.33,0.65-0.7,1.02-1.01c0.87-0.59,1.26-1.52,1.58-2.44c0.37-1.05-0.13-1.92-1.35-2.7
			C44.28,128.78,43.76,128.92,43.38,128.51z"/>
		<path class="st21" d="M27.84,123.98c-0.36,0.42-0.21,0.93-0.28,1.41c-0.35,0.73-0.29,1.49-0.13,2.26
			c0.14,1.47,0.75,2.81,1.09,4.22c-1.01-0.24-1.05-1.21-1.44-1.92c-0.01-1.06,0.12-2.15-0.48-3.12c0.14-0.37,0.51-0.75-0.04-1.09
			c-0.06-0.03-0.09-0.11-0.13-0.17c1.23-0.72-0.03-2.3,1.07-3.08c0.09-0.06,0.04-0.3,0.06-0.45c0.11-0.1,0.22-0.1,0.31,0.03
			c-0.01,0.54-0.21,1.1,0.15,1.6C28.06,123.83,27.92,123.89,27.84,123.98z"/>
		<path class="st22" d="M27.88,122.07c-0.1-0.01-0.21-0.02-0.31-0.03c0.29-0.48,0.19-0.79-0.37-0.98c-0.52-0.18-0.36-0.66-0.31-1.02
			c0.06-0.47,0.41-0.32,0.73-0.27c1.03,0.15,1.44-0.61,1.87-1.32c0.37-0.21,0.69-0.58,1.19-0.48
			C29.59,119.23,28.63,120.58,27.88,122.07z"/>
		<path class="st23" d="M38.83,138.1c-0.7-0.95-1.82-0.32-2.69-0.7c-0.32-0.14-0.83,0.1-0.91-0.5c0.83-0.45,1.69,0.08,2.53-0.1
			c1.08,0.23,2.21,0.04,3.28,0.37C40.31,137.48,39.57,137.79,38.83,138.1z"/>
		<path class="st24" d="M41.47,110.77c-0.08-0.33-0.15-0.66-0.22-1c0.99,0.92,1.7,1.98,1.7,3.4c0.14,0.69,0.19,1.38-0.07,2.06
			c-0.13,0.33-0.3,0.55-0.69,0.31c0.48-0.49-0.02-1.13,0.24-1.65c0.27-0.52,0.09-1.01-0.13-1.49c-0.14-0.26-0.27-0.52-0.52-0.7
			c-0.07-0.07-0.13-0.14-0.19-0.22C41.48,111.26,41.44,111.02,41.47,110.77z"/>
		<path class="st25" d="M42.18,115.54c0.94-0.57,0.59-1.55,0.76-2.37c0.28,0.24,0.2,0.59,0.28,0.89c0.21,0.78,0.07,1.57-0.57,2.03
			s-1.16-0.18-1.67-0.52C41.39,115.57,41.78,115.56,42.18,115.54z"/>
		<path class="st26" d="M24.73,101.85c-1.3-0.13-2.59-0.05-3.88,0.05C22.13,101.03,23.42,100.77,24.73,101.85z"/>
		<path class="st4" d="M15.83,130.15c0.25-0.23,0.48-0.27,0.67,0.06c0.55,0.95,1.13,1.87,2.15,2.4c0.15,0.08,0.14,0.2,0.04,0.27
			c-0.12,0.09-0.28,0.12-0.42,0.18C17.34,132.19,16.54,131.2,15.83,130.15z"/>
		<path class="st27" d="M41.05,137.18c-1.14-0.01-2.28-0.02-3.42-0.04c-0.08-0.14-0.05-0.26,0.08-0.35
			c0.47-0.17,0.93-0.21,1.36,0.11c0.58,0.08,1.13-0.1,1.68-0.24c0.76,0.32,1.16-0.78,1.92-0.48c0,0.08,0.01,0.17,0.01,0.25
			C42.13,136.68,41.59,136.93,41.05,137.18z"/>
		<path class="st26" d="M26.23,104.26c-1.73-0.05-1.1-1.55-1.49-2.42C25.84,102.28,25.6,103.54,26.23,104.26z"/>
		<path class="st28" d="M14.11,109.99c0.09,0.5,0.18,1,0.27,1.51c-0.33,0.33-0.64,0.7-1.17,0.72
			C13.33,111.4,13.73,110.7,14.11,109.99z"/>
		<path class="st29" d="M27.84,123.98c0.06-0.1,0.12-0.21,0.18-0.31c0.49,0.57,0.98,1.14,1.47,1.72
			C28.33,125.64,28.23,124.64,27.84,123.98z"/>
		<path class="st30" d="M30.93,138.99c0.26-0.73,0.87-0.36,1.33-0.4c0.66-0.06,1.33-0.02,2,0.06c-1,0.39-2.09-0.12-3.08,0.36
			C31.09,139,31.01,139,30.93,138.99z"/>
		<path class="st31" d="M36.44,128.53c0,0.15,0.61,0.38-0.04,0.45c-0.3,0.03-0.61,0.01-0.92,0.01c-0.28,0.03-0.54,0.01-0.72-0.24
			c0.01-0.17,0.01-0.34,0.02-0.51C35.33,128.34,35.88,128.44,36.44,128.53z"/>
		<path class="st32" d="M39.09,108.37c-0.73-0.05-1.49,0.22-2.18-0.21C37.64,108.23,38.39,108,39.09,108.37z"/>
		<path class="st20" d="M40.51,128.5c-0.14,0.38-0.39,0.42-0.73,0.26c-0.26-0.02-0.53-0.03-0.79-0.05
			C39.46,128.33,39.99,128.49,40.51,128.5z"/>
		<path class="st33" d="M118.67,132.18c0.06-0.58-0.21-1.2,0.19-1.75C118.86,131.02,119.12,131.64,118.67,132.18z"/>
		<path class="st9" d="M36.02,115.36c-0.11-0.03-0.21-0.06-0.32-0.09c0.04-0.08,0.06-0.18,0.13-0.22c0.31-0.2,0.47,0.01,0.6,0.26
			C36.29,115.33,36.15,115.34,36.02,115.36z"/>
		<path class="st32" d="M36.79,108.11c-0.59-0.23-0.29-0.75-0.37-1.14C36.77,107.27,36.56,107.76,36.79,108.11z"/>
		<path class="st32" d="M36.22,106.23c-0.42-0.3-0.23-0.75-0.29-1.15C36.32,105.39,36.16,105.84,36.22,106.23z"/>
		<path class="st29" d="M30.27,126.09c-0.5,0.03-0.76-0.21-0.78-0.71C29.75,125.62,30.01,125.85,30.27,126.09z"/>
		<path class="st34" d="M33.32,107.42c-2.29,0.12-4.6,0.14-6.87,0.11c-2.29-0.03-4.56,0.41-6.84,0.13c-0.38-0.05-0.84,0.1-0.92-0.48
			c0.15,0.03,0.41,0.13,0.44,0.08c0.7-1.08,1.8-0.85,2.79-0.78c1.8,0.13,3.59-0.28,5.42,0.14c0.71,0.16,1.58-0.45,2.48-0.43
			c1.35,0.04,2.7,0.04,4.03,0.29c0.43,0.08,0.82,0.17,1.26-0.05s0.76,0.01,0.84,0.51c-0.18-0.05-0.49-0.2-0.53-0.14
			C34.86,107.52,34.05,107.33,33.32,107.42z"/>
		<path class="st34" d="M18.69,107.18c-0.86,0.28-1.7,0.75-2.64,0.24c0.38-0.53,0.69-1.22,1.54-0.65c0.21-0.38-0.42-0.5-0.2-0.87
			c0.05-0.02,0.17-0.08,0.18-0.06C17.9,106.33,18.92,106.23,18.69,107.18z"/>
		<path class="st35" d="M32.06,103.06c-0.69,0-1.37,0-2.06,0c0-0.04,0-0.08,0-0.12c0.69,0,1.38,0,2.07,0
			C32.07,102.98,32.06,103.02,32.06,103.06z"/>
		<path class="st23" d="M34.51,136.67c-0.32,0-0.63,0-0.95,0c-1.78-0.49-3-1.71-4.07-3.12c0-0.08,0-0.16,0-0.24
			c0.16-0.16,0.33-0.14,0.5-0.01c0.47,0.4,0.94,0.81,1.41,1.21c0.82,0.73,1.77,1.24,2.76,1.68
			C34.36,136.28,34.6,136.35,34.51,136.67z"/>
		<path class="st36" d="M29.98,133.3c-0.17,0-0.33,0.01-0.5,0.01c-0.32-0.48-0.64-0.96-0.96-1.44c-0.97-1.28-1.02-2.82-1.2-4.32
			c-0.09-0.25,0.03-0.3,0.24-0.24C27.78,129.55,28.75,131.47,29.98,133.3z"/>
		<path class="st4" d="M18.47,131.68c-0.27-0.47,0.35-0.69-0.02-1.01c-0.03-0.03-0.06-0.06-0.07-0.1c-0.12-0.34,0.28-0.51,0.34-0.44
			c0.53,0.71,1.46-0.9,1.83,0.34c0.07,0.22-0.1,0.43-0.32,0.4C19.5,130.77,19.02,131.24,18.47,131.68z"/>
		<path class="st4" d="M26.07,130.4c-0.11,0.38-0.32,0.52-0.63,0.47c-0.25-0.04-0.46-0.19-0.42-0.47c0.04-0.32,0.29-0.44,0.6-0.4
			C25.88,130.03,26,130.22,26.07,130.4z"/>
		<path class="st37" d="M42.42,112.21c0.26,0.56,0.44,1.12,0,1.68c-0.11-1.56-0.46-1.74-2.02-0.94c-0.21,0.11-0.45,0.29-0.59,0.17
			c-1.04-0.91-2.16-0.16-3.21-0.12s-2.03-0.02-2.99-0.4c-0.27-0.11-0.53-0.19-0.81-0.1c-2.42,0.78-4.87,0.72-7.37,0.53
			c-0.95-0.07-1.99,0.06-2.99,0.39c-1.47,0.49-3.07,0.33-4.59,0.07c-0.5-0.08-0.91-0.37-1.42-0.05c-0.2,0.13-0.45,0.23-0.59-0.1
			c-0.2-0.49-0.44-0.46-0.8-0.13c-0.57,0.51-0.88-0.38-1.39-0.29c0.39-0.51,0.62-0.92,1.54-0.55c0.55,0.22,1.55,0.12,2.3,0.02
			c3.06-0.41,6.13-0.02,9.18-0.21c1.55-0.09,3.12,0.34,4.68-0.38c0.72-0.33,1.57,0.6,2.49,0.41c1.06-0.22,2.3,0.48,3.18-0.68
			c0.08-0.1,0.42-0.11,0.57-0.03c0.56,0.27,1.02,0.81,1.67,0.03c0.19-0.23,0.52,0.17,0.53,0.55c0,0.19-0.02,0.44,0.28,0.4
			c0.2-0.03,0.34-0.16,0.42-0.38c0.17-0.49,0.04-1.15,0.74-1.35l0,0c0.24,0.19,0.23,0.54,0.48,0.72l0,0
			C42,111.67,42.24,111.91,42.42,112.21z"/>
		<path class="st38" d="M14.86,109.81c0.63-1.19,1.75-1.2,2.88-1.2c0.21,0.43,0.54,0.56,0.98,0.35c0.9-0.43,1.87-0.29,2.82-0.36
			c3.32-0.26,6.64-0.24,9.96-0.38c2.01-0.08,4.17-0.3,6.13,0.63c-0.05,0.33-0.17,0.78-0.54,0.58c-0.99-0.53-2.08-0.09-3.07-0.46
			c-0.1-0.04-0.26-0.07-0.34-0.02c-1.81,1.1-3.81,0.42-5.72,0.58c-1.49,0.13-3,0.48-4.48,0.36c-2-0.16-4.01,0.14-6.01-0.28
			C16.65,109.44,15.73,109.73,14.86,109.81z"/>
		<path class="st11" d="M41.71,111.49c-0.49-0.02-0.48-0.37-0.48-0.72c0.08,0,0.16,0,0.24,0C41.75,110.95,41.7,111.23,41.71,111.49z
			"/>
		<path class="st39" d="M34.51,136.67c-0.99-0.79-2.39-0.99-3.12-2.16c1.02,0.36,1.77,1.27,2.89,1.44c0.42,0.07,0.85,0.11,1.4,0.11
			c-1.41-1.65-0.95-3.56-0.97-5.39c-0.01-0.61,0.02-1.1-0.73-1.24c-0.29-0.06-0.73-0.23-0.61-0.59c0.16-0.45,0.58-0.21,0.91-0.09
			c0.16,0,0.32,0,0.48,0c0.26,0.01,0.55-0.04,0.72,0.24c0.85,0.48,0.72,1.26,0.76,2.07c0.04,0.79,0.14,1.64,0.65,2.36
			c0.41,0.58,0.03,1.32,0.11,1.98c0.14,1.17,0.67,1.01,1.36,1.02c0.16,0,0.32,0,0.47,0c0.19,0.1,0.24,0.28,0.24,0.48
			c-0.48,0-0.96,0.01-1.43,0.01c-0.97,0.4-1.9-0.39-2.87-0.08C34.68,136.77,34.59,136.72,34.51,136.67z"/>
		<path class="st31" d="M34.28,128.75c-0.23,0-0.46,0-0.73,0c0.04,0.14,0.06,0.25,0.08,0.25c1.54,0.01,1.59,0.9,1.4,2.13
			c-0.15,0.97-0.14,2.01,0.02,2.98c0.15,0.86,0.45,1.77,1.5,2.15c-0.85,0.17-1.63,0.36-2.27-0.31c-0.03-0.77-1.12-0.49-1.2-1.2
			c-0.07-1.04-0.12-2.09-0.21-3.13c-0.1-1.1-0.21-2.23-0.23-3.34c0-0.01,0.06-0.04,0.09-0.03c0.04,0,0.08,0.02,0.11,0.03
			C33.38,128.25,33.9,128.29,34.28,128.75z"/>
		<path class="st40" d="M32.84,128.27c0.03,1.06,0.84,2.08,0.13,3.17c0.81,0.64,0.08,1.59,0.46,2.31c0.26,0.49-0.11,0.71-0.35,0.99
			c-0.7-0.36-0.45-1.15-0.43-1.57c0.06-1.4-1.29-2.42-0.89-3.87c0.2-0.71-0.12-1.12-1.04-0.79
			C31.47,127.52,31.47,127.52,32.84,128.27z"/>
		<path class="st41" d="M27.57,127.31c-0.08,0.08-0.16,0.16-0.24,0.24c-0.41-0.78-0.38-1.5,0.24-2.16
			C27.57,126.03,27.57,126.67,27.57,127.31z"/>
		<path class="st27" d="M43.62,135.22c-0.09,0.23-0.25,0.39-0.48,0.48c-0.97-0.29-1.71-1.46-1.45-2.4c0.14-0.52,0.17-0.97-0.1-1.47
			c-0.44-0.83-0.12-1.77-0.26-2.66c-0.06-0.41,0.48-0.42,0.85-0.43c0.37,0.86,1.28,1.53,0.91,2.65c-0.09,0.27,0.01,0.58,0.17,0.79
			C43.99,133.15,44.06,134.15,43.62,135.22z"/>
		<path class="st42" d="M43.62,135.22c-0.11-0.1-0.32-0.3-0.32-0.3c0.89-1.02-0.04-1.81-0.34-2.66c-0.17-0.48-0.52-0.93-0.02-1.42
			c0.06-0.06,0.06-0.31,0.06-0.31c-1.13-0.2-0.52-1.2-0.82-1.78c0.4-0.08,0.8-0.16,1.2-0.24c0.56,0,1.11,0.01,1.67,0.01
			c0.04,0.08,0.04,0.2-0.01,0.21c-1.29,0.34-0.95,1.14-0.7,2.05c0.32,1.12,0.54,2.29,0.23,3.47
			C44.26,134.58,43.94,134.9,43.62,135.22z"/>
		<path class="st16" d="M34.77,136.83c0.97-0.53,1.91,0.23,2.87,0.08c0,0.08,0,0.15,0,0.23c-0.82,0.14-1.6-0.16-2.4-0.24
			C35.08,136.88,34.92,136.85,34.77,136.83z"/>
		<path class="st43" d="M44.58,134.26c-0.37-1.32-0.12-2.73-0.7-4.02c-0.5-1.13,0.2-1.54,1.17-1.72
			C47.47,130.31,46.56,132.61,44.58,134.26z"/>
		<path class="st11" d="M42.42,112.21c-0.32-0.16-0.56-0.4-0.71-0.72C42.16,111.51,42.41,111.75,42.42,112.21z"/>
	</g>
</g>
<path class="st44" d="M43.08,113.11c-0.04,0.2-0.05,0.37-0.06,0.48c-0.01,0.14,0,0.16-0.01,0.42c-0.01,0.22-0.01,0.33-0.03,0.46
	c-0.02,0.14-0.03,0.25-0.08,0.38c-0.02,0.07-0.07,0.18-0.16,0.3c-0.04,0.05-0.09,0.13-0.18,0.22c-0.1,0.09-0.19,0.14-0.23,0.16
	c-0.01,0-0.02,0.01-0.02,0.01l-1.19,0.02l0.08,0.62l2.24,0.2l0.6-1.06l-0.44-1.92L43.08,113.11z"/>
<path class="st44" d="M40.96,115.34c-1.01-0.25-3.2-0.66-5.8,0.09c-2.66,0.77-4.25,2.31-4.88,2.93c-0.85,0.84-1.84,1.85-2.13,3.46
	c-0.16,0.88-0.13,1.37-0.03,1.64c0.12,0.32,0.29,0.54,0.4,0.68c1.71,2.05,3.3,2.95,3.3,2.95c2.83,1.62,5.57,1.67,6.61,1.67
	c1.19,0,2.17-0.14,2.87-0.28l0.39-0.25c0.09-0.04,0.23-0.09,0.41-0.14c1.53-0.43,2.88,0.06,3.35,0.24c0.33,0.13,0.53,0.2,0.76,0.38
	c0.69,0.52,0.88,1.3,0.93,1.55c0.15,0.75-0.08,1.34-0.38,2.11c-0.2,0.5-0.55,1.23-1.17,2l4.59,2.04l0.31-8.14
	c-2.47-0.59-4.95-1.17-7.42-1.76c0.39-3.57,0.79-7.15,1.18-10.72"/>
<path class="st44" d="M20,102.58c-1.34,1.12-5.85,5.17-7.17,12.19c-0.42,2.24-1.06,7.65,1.92,13.35c3.4,6.47,9.18,8.91,10.64,9.48
	c7.72,2.99,14.47,0.15,15.78-0.43l-1.93,3.11l-22.78-0.41l-9.58-21.59l8.91-17.03L20,102.58z"/>
</svg>
