<?xml version="1.0" encoding="utf-8"?>
<!-- Generator: Adobe Illustrator 26.0.2, SVG Export Plug-In . SVG Version: 6.00 Build 0)  -->
<svg version="1.1" id="Layer_1" xmlns="http://www.w3.org/2000/svg" xmlns:xlink="http://www.w3.org/1999/xlink" x="0px" y="0px"
	 viewBox="0 0 55.26 55.86" style="enable-background:new 0 0 55.26 55.86;" xml:space="preserve">
<style type="text/css">
	.st0{fill:#FFFFFF;}
	.st1{fill:#1B70AF;}
	.st2{fill:#28A2D4;}
	.st3{fill:#D5E6EE;}
	.st4{fill:#227BB7;}
	.st5{fill:#28B0E2;}
	.st6{fill:#2EA0D0;}
	.st7{fill:#26A6DB;}
	.st8{fill:#1B3C82;}
	.st9{fill:#2FA2CE;}
	.st10{fill:#2277B3;}
	.st11{fill:#E5F8FA;}
	.st12{fill:#2597CB;}
	.st13{fill:#2C87C4;}
	.st14{fill:#1F9CD2;}
	.st15{fill:#2692CC;}
	.st16{fill:#247CB6;}
	.st17{fill:#1E6DB1;}
	.st18{fill:#1774B0;}
	.st19{fill:#1E67A3;}
	.st20{fill:#DCEBF2;}
	.st21{fill:#27A8DF;}
	.st22{fill:#CFE9F5;}
	.st23{fill:#2B98CD;}
	.st24{fill:#2DA4D2;}
	.st25{fill:#2B7EB6;}
	.st26{fill:#BEE0EC;}
	.st27{fill:#28ADDE;}
	.st28{fill:#449AD0;}
	.st29{fill:#2F81B0;}
	.st30{fill:#2571AA;}
	.st31{fill:#2AA0D6;}
	.st32{fill:#D9F2F8;}
	.st33{fill:#328FB5;}
	.st34{fill:#3198C7;}
	.st35{fill:#2B9BCB;}
	.st36{fill:#236EB3;}
	.st37{fill:#2978AF;}
	.st38{fill:#2B9ACB;}
	.st39{fill:#1C71AF;}
	.st40{fill:#3083B4;}
	.st41{fill:#23ACDA;}
	.st42{fill:#20ACDE;}
	.st43{fill:#239ECD;}
	.st44{fill:#278DC5;}
	.st45{fill:#1EA5DA;}
	.st46{fill:#2E81B7;}
	.st47{fill:#2E97C7;}
	.st48{fill:#2B76B0;}
	.st49{fill:#3676AA;}
	.st50{fill:#2B71AC;}
	.st51{fill:#5489AF;}
	.st52{fill:#2498C6;}
	.st53{fill:#1D6499;}
	.st54{fill:#21A5D1;}
	.st55{fill:#4B8FBA;}
	.st56{fill:#2778A3;}
	.st57{fill:#43A5D1;}
	.st58{fill:#1E75B3;}
	.st59{fill:#1B70B2;}
	.st60{fill:#1B70AB;}
	.st61{fill:#1971A8;}
	.st62{fill:#1E71AB;}
	.st63{fill:#1A6FB5;}
	.st64{fill:#206DB2;}
	.st65{fill:#1574A9;}
	.st66{fill:#0B64A2;}
	.st67{fill:#1B73AD;}
	.st68{fill:#1871B5;}
	.st69{fill:#1870B8;}
	.st70{fill:#29A0D2;}
	.st71{fill:#27A4D6;}
	.st72{fill:#2C9FD8;}
	.st73{fill:#1B5C9D;}
	.st74{fill:#3D8AB7;}
	.st75{fill:#2E7FAF;}
	.st76{fill:#2B78A5;}
	.st77{fill:#1B6DA9;}
	.st78{fill:#2983B9;}
	.st79{fill:#1D6E9C;}
	.st80{fill:#1C5196;}
	.st81{fill:#257EB9;}
	.st82{fill:#2078B4;}
	.st83{fill:#2980C0;}
	.st84{fill:#1C79B0;}
	.st85{fill:#2178B5;}
	.st86{fill:#25B0E0;}
	.st87{fill:#23B1E3;}
	.st88{fill:#2FAEDA;}
	.st89{fill:#29AFEA;}
	.st90{fill:#2DA5DC;}
	.st91{fill:#28B4E8;}
	.st92{fill:#12ACDC;}
	.st93{fill:#34A3D8;}
	.st94{fill:#20B1E1;}
	.st95{fill:#1EB6D7;}
	.st96{fill:#289BCE;}
	.st97{fill:#2898CC;}
	.st98{fill:#269CD0;}
	.st99{fill:#24A0D5;}
	.st100{fill:#25A5D7;}
	.st101{fill:#22A8D7;}
	.st102{fill:#22AADC;}
	.st103{fill:#20A8E2;}
	.st104{fill:#2FA2DD;}
	.st105{fill:#16418C;}
	.st106{fill:#134690;}
	.st107{fill:#17408B;}
	.st108{fill:#2363A5;}
	.st109{fill:#0F3F88;}
	.st110{fill:#185598;}
	.st111{fill:#134291;}
	.st112{fill:#26A4D5;}
	.st113{fill:#21A6D0;}
	.st114{fill:#28A4D3;}
	.st115{fill:#1E72B7;}
	.st116{fill:#2779B7;}
	.st117{fill:#23AEDF;}
	.st118{fill:#2596C7;}
	.st119{fill:#2894CE;}
	.st120{fill:#2891C1;}
	.st121{fill:#2E98C8;}
	.st122{fill:#2590C8;}
	.st123{fill:#2E99CE;}
	.st124{fill:#2892C1;}
	.st125{fill:#249ED3;}
	.st126{fill:#299BD1;}
	.st127{fill:#2689C1;}
	.st128{fill:#278CC0;}
	.st129{fill:#2C83BD;}
	.st130{fill:#288ACA;}
	.st131{fill:#2691C7;}
	.st132{fill:#2998C8;}
	.st133{fill:#2981BB;}
	.st134{fill:#2682BD;}
	.st135{fill:#1870B4;}
	.st136{fill:#42ADE3;}
	.st137{fill:#1871A8;}
	.st138{fill:#1174B2;}
	.st139{fill:#2883B3;}
	.st140{fill:#21ADDB;}
	.st141{fill:#24AFE1;}
	.st142{fill:#1FAFE3;}
	.st143{fill:#3AA3DA;}
	.st144{fill:#29A4D8;}
	.st145{fill:#288AC3;}
	.st146{fill:#2B9FCF;}
	.st147{fill:#1AADE4;}
	.st148{fill:#1877BB;}
	.st149{fill:#24ACE3;}
	.st150{fill:#1BABD0;}
	.st151{fill:#18AAE6;}
	.st152{fill:#2B9ED3;}
	.st153{fill:#2BA0CD;}
	.st154{fill:#2E9CD4;}
	.st155{fill:#1BA7C8;}
	.st156{fill:#1666A5;}
	.st157{fill:#1C5BA0;}
	.st158{fill:#1B589C;}
	.st159{fill:#1761A2;}
	.st160{fill:#0F4C96;}
	.st161{fill:#15619E;}
	.st162{fill:#2487BE;}
	.st163{fill:#227EB9;}
	.st164{fill:#227DB2;}
	.st165{fill:#1C7AB7;}
	.st166{fill:#1C77AB;}
	.st167{fill:#156CAC;}
	.st168{fill:#1671AF;}
	.st169{fill:#1A77B3;}
	.st170{fill:#2680BB;}
	.st171{fill:#2989C4;}
	.st172{fill:#2B85BA;}
	.st173{fill:#268ABD;}
	.st174{fill:#2587BA;}
	.st175{fill:#25ACDE;}
	.st176{fill:#1FAFDF;}
	.st177{fill:#39A0D9;}
	.st178{fill:#25AFE5;}
	.st179{fill:#19AEE2;}
	.st180{fill:#1A69A8;}
	.st181{fill:#1A4F95;}
	.st182{fill:#2793C9;}
	.st183{fill:#2795CB;}
	.st184{fill:#2599CB;}
	.st185{fill:#3396C9;}
	.st186{fill:#24A7D8;}
	.st187{fill:#26A5DA;}
	.st188{fill:#1DAAD2;}
	.st189{fill:#22A8DA;}
	.st190{fill:#1FAAD8;}
	.st191{fill:#27A7E1;}
	.st192{fill:#24AADF;}
	.st193{fill:#24ACD6;}
	.st194{fill:#12458B;}
	.st195{fill:#173F8C;}
	.st196{fill:#12438C;}
	.st197{fill:#16458E;}
	.st198{fill:#1A3E91;}
	.st199{fill:#0F4489;}
	.st200{fill:#133E93;}
	.st201{fill:#0F4488;}
	.st202{fill:#1A4B92;}
	.st203{fill:#16599E;}
	.st204{fill:#5AA3DD;}
	.st205{fill:#389DD6;}
	.st206{fill:#29A0D7;}
	.st207{fill:#2B8DC9;}
	.st208{fill:#208DBB;}
	.st209{fill:#2983BF;}
	.st210{fill:#2787BC;}
	.st211{fill:#1776B1;}
	.st212{fill:#176FAB;}
	.st213{fill:#1969AA;}
	.st214{fill:#0F6CA2;}
	.st215{fill:#22ACE0;}
	.st216{fill:#2787C1;}
	.st217{fill:#208DB8;}
	.st218{fill:#3187C2;}
	.st219{fill:#1560A0;}
	.st220{fill:#176BA5;}
	.st221{fill:#1461A1;}
	.st222{fill:#1666AF;}
	.st223{fill:#146AA2;}
	.st224{fill:#0F67A3;}
	.st225{fill:#287EB9;}
	.st226{fill:#1F8FBD;}
	.st227{fill:#227AB9;}
	.st228{fill:#2079B6;}
	.st229{fill:#1E7AB0;}
	.st230{fill:#1C78B4;}
	.st231{fill:#1372AA;}
	.st232{fill:#1776AF;}
	.st233{fill:#2A83BD;}
	.st234{fill:#20AFDC;}
	.st235{fill:#22ACDD;}
	.st236{fill:#2492C2;}
	.st237{fill:#2093C9;}
	.st238{fill:#23A8D5;}
	.st239{fill:#1EADD6;}
	.st240{fill:#13498F;}
	.st241{fill:#194892;}
	.st242{fill:#1C73AE;}
	.st243{fill:#25A9DB;}
	.st244{fill:#1CAED9;}
	.st245{fill:#FFFFFF;}
</style>
<g id="Layer_1_00000029031235240455460170000001542144821044165280_">
	<g>
		<g>
			<path class="st0" d="M-0.9-1.72c18.39,0,36.79,0.01,55.18-0.02c0.82,0,0.98,0.16,0.98,0.98c-0.03,18.55-0.03,37.1,0,55.64
				c0,0.82-0.16,0.98-0.98,0.98c-18.39-0.03-36.79-0.02-55.18-0.02C-0.9,36.65-0.9,17.46-0.9-1.72z"/>
			<path class="st1" d="M23.79,9.92c0.06-0.03,0.11-0.03,0.16,0.02c0.59,0.51,0.11,1.43,0.74,1.93c0.1,0.04,0.18,0.1,0.27,0.17
				c0.14,0.17,0.31,0.28,0.53,0.3c0.64-0.22,1.03-0.94,1.8-0.92c0.39-0.17,0.8-0.29,1.2-0.44c0.15-0.02,0.31-0.03,0.46-0.05
				c0.69,0.33,1.44,0,1.81,0.1c-0.38-0.05-1.11,0.18-1.81-0.1c1.45-0.53,2.79-0.27,4.08,0.51c0.38,0.15,0.78,0.27,0.94,0.71
				c0.18,0.14,0.35,0.27,0.53,0.41c0.08,0.17,0.1,0.34,0.05,0.52c-0.43,0.39-0.8,0.16-1.14-0.13c-0.33-0.28-0.62-0.61-0.95-0.88
				c-0.14-0.04-0.35-0.23-0.3,0.15c-0.05,0.34,0.05,0.59,0.37,0.74c0.08,0.06,0.15,0.14,0.21,0.23c0.12,0.24,0.34,0.39,0.53,0.56
				c0.06,0.1,0.07,0.21,0.02,0.32c-0.29,0.31-0.61,0.58-1.04,0.68c-3.61-0.39-7.17,0.65-10.78,0.38c-0.79-0.06-1.59,0.03-2.37-0.19
				c-0.26-0.09-0.4-0.29-0.52-0.52c-0.25-0.01,0.12-1.07-0.57-0.33c-0.59-0.32-1-0.76-0.99-1.48c0.49-0.37,0.72-1.04,1.39-1.2
				c0.78-0.08,0.92-0.9,1.46-1.27c0.1-0.2,0.29-0.16,0.46-0.16c0.27-0.12,0.56-0.17,0.85-0.14c0.46,0.14,0.26,0.66,0.52,0.94
				c0.5-0.09,0.3-0.66,0.62-0.87c0.17-0.07,0.33-0.06,0.49,0.03c0.3,0.38,0.28,0.84,0.34,1.28c0.04,0.11-0.07,0.34,0.09,0.33
				c0.1,0,0.02-0.25,0.03-0.39c0.01-0.38,0.11-0.73,0.27-1.07C23.59,10,23.68,9.94,23.79,9.92z"/>
			<path class="st2" d="M12.21,31.53c-0.33-0.53-0.35-1.14-0.43-1.73c0.2-0.45-0.12-0.9-0.02-1.36c0.07-0.61-0.18-1.26,0.23-1.83
				c2.25-0.02,4.48-0.33,6.73-0.35c1.27-0.01,2.52,0.07,3.79-0.1c0.85-0.11,1.74-0.21,2.58,0.17c0.42,0.38,0.41,0.91,0.49,1.41
				c0.01,1.53-0.12,1.68-1.66,1.7c-3.2,0.02-6.4,0-9.6,0.01c-0.63,0-1.3-0.05-1.54,0.76C12.52,30.62,12.64,31.19,12.21,31.53z"/>
			<path class="st3" d="M33.91,36.05c0.92-0.15,1.81,0.09,2.71,0.18c1.72,0.18,3.38-0.25,5.05-0.59c1.25-0.26,2.46-0.15,3.49,0.69
				c1.49,1.23,1.75,2.99,0.6,4.91c-0.78,1.3-1.81,2.4-3.18,3.13c-0.08-0.08-0.13-0.17-0.13-0.29c0.32-0.8,1.18-1.08,1.64-1.73
				c0.19-0.19,0.37-0.38,0.53-0.6c0.4-0.54,0.69-1.14,0.93-1.77c0.52-1.36,0.24-2.26-1-3.14c-1.04-0.75-2.16-0.62-3.3-0.34
				c-0.17,0.09-0.34,0.17-0.52,0.22c-1.18,0.05-2.34,0.25-3.52,0.25c-0.49-0.12-0.99-0.18-1.5-0.17c-0.51-0.01-1.01-0.08-1.48-0.31
				C34.06,36.39,33.93,36.26,33.91,36.05z"/>
			<path class="st4" d="M38.15,16.4c0.2-0.03,0.33,0.04,0.38,0.24c-0.08,0.78-0.7,0.62-1.19,0.69c-0.27-0.04-0.54-0.1-0.82-0.11
				c-2.06-0.55-4.13-0.43-6.24-0.28c-3.48,0.24-6.97,0.07-10.46,0.07c-0.32,0-0.63-0.07-0.89-0.28c0.02-0.74,0.63-0.62,1.03-0.62
				c2.73-0.01,5.45-0.38,8.18-0.27c0.78,0.03,1.57,0.08,2.32-0.3c0.68-0.34,1.29,0.18,1.94,0.31c0.53,0.02,1.06,0.02,1.59,0.02
				c0.32,0.03,0.63-0.08,0.95-0.06c0.52,0.04,0.88,0.53,1.42,0.53C36.96,16.35,37.56,16.23,38.15,16.4z"/>
			<path class="st5" d="M33.95,46.97c-0.79,0.02-1.58,0.04-2.37,0.06c-1.91,0.13-3.8,0.09-5.54-0.88c0.14-0.37,0.5-0.45,0.78-0.38
				c1.35,0.32,2.6,0.14,3.75-0.65c0.35-0.09,0.71-0.11,1.07-0.1c0.5,0.12,0.79-0.14,1-0.55c0.28-0.14,0.57-0.12,0.86-0.05
				c0.82,0.5,1.85,0.41,2.66,0.95c0.03,0.27-0.4,0.39-0.24,0.71c-0.4,0.35-1.08,0.15-1.38,0.69C34.36,46.91,34.12,46.84,33.95,46.97
				z"/>
			<path class="st6" d="M33.76,23.61c-0.53,0.92-1.73,0.67-2.44,1.4c-0.29,0.3-0.74,0.64-1.17,0.88c-0.33-0.37-0.8-0.57-1.1-0.97
				c-0.14-0.62,0.11-1.07,0.58-1.44c0.49-0.27,1.08-0.1,1.57-0.35c0.46-0.19,0.9-0.29,1.17,0.28c0.03,0.1-0.09,0.2-0.01,0.31
				c0.05-0.04,0.09-0.11,0.11-0.19c0.06-0.14,0.15-0.25,0.26-0.35c0.28-0.21,0.56-0.3,0.86-0.02C33.7,23.29,33.76,23.44,33.76,23.61
				z"/>
			<path class="st7" d="M14.82,37.77c-0.57-0.84-1.06-1.73-1.47-2.67c0.16-0.37,0-0.72-0.1-1.07c-0.1-0.61,0.29-1.08,0.44-1.62
				c0.05-0.11,0.12-0.21,0.22-0.28c0.12-0.04,0.24-0.03,0.36,0.02c0.9,0.73,1.02,1.62,0.52,2.62c-0.12,0.25-0.56,0.36-0.33,0.77
				c0.38-0.01,0.4-0.46,0.72-0.54c0.61,0.25,0.51,0.85,0.66,1.33c0.03,0.23,0.02,0.46-0.05,0.68c-0.04,0.1-0.09,0.2-0.17,0.28
				C15.36,37.46,15.12,37.67,14.82,37.77z"/>
			<path class="st8" d="M33.91,36.05c0.1,0.08,0.2,0.17,0.3,0.25c0.07,0.26-0.06,0.42-0.27,0.54c-0.16,0.06-0.32,0.06-0.49,0.01
				c-0.39-0.16-0.78-0.33-1.19-0.44c-0.4-0.15-0.81-0.27-1.2-0.47c-0.55-0.35-1.14-0.61-1.69-0.96c-0.29-0.24-0.54-0.52-0.82-0.78
				c-0.34-0.46-0.93-0.49-1.35-0.81c-0.22-0.35-0.21-0.76-0.27-1.14c0-0.12,0.03-0.23,0.08-0.33c0.1-0.07,0.21-0.09,0.32-0.04
				c1.56,1.61,3.12,3.2,5.35,3.94C33.1,35.97,33.51,35.95,33.91,36.05z"/>
			<path class="st9" d="M29.2,26.67c-1.05,0.92-1.36,2.28-2.07,3.4c-0.09,0.08-0.18,0.09-0.28,0.02c-0.22-0.37-0.55-0.66-0.74-1.06
				c-0.11-0.39-0.27-0.77-0.17-1.19c0.09-0.24,0.28-0.36,0.52-0.43c0.69-0.07,1.44-0.02,1.8-0.82c0.15-0.25,0.24-0.53,0.48-0.72
				c0.24-0.12,0.47-0.11,0.7,0.03C29.68,26.26,29.51,26.49,29.2,26.67z"/>
			<path class="st10" d="M14.13,16.63c0.12-0.46,0.25-0.93,0.72-1.18c0.56-0.12,1.15,0.1,1.7-0.16c0.49,0.04,0.99-0.06,1.46,0.14
				c0.08,0.09,0.13,0.19,0.17,0.3c0.08,0.36,0.08,0.71-0.05,1.06c-0.05,0.11-0.14,0.19-0.24,0.25c-0.81,0.2-1.56-0.31-2.36-0.25
				c-0.36-0.22-0.51-0.06-0.8,0.23C14.32,17.45,13.96,17.35,14.13,16.63z"/>
			<path class="st11" d="M26.05,46.06c1.79,0.61,3.64,0.94,5.54,0.97c-1.57,0.5-3.15,0.21-4.67-0.15c-1.36-0.32-2.77-0.66-3.94-1.55
				c0.12-0.15,0.29-0.22,0.47-0.25c0.18-0.02,0.36-0.01,0.54,0.02C24.73,45.32,25.45,45.57,26.05,46.06z"/>
			<path class="st12" d="M39.9,23.37l-0.1,0.01l-0.09-0.04c-0.74-0.24-1.49-0.05-2.24-0.12c-0.39-0.47,0.1-0.51,0.33-0.68
				c0.09-0.04,0.19-0.08,0.28-0.1c0.14-0.05,0.18-0.14,0.09-0.28c-0.05-0.09-0.08-0.18-0.11-0.28c-0.03-0.3,0-0.57,0.24-0.78
				c0.22-0.14,0.47-0.18,0.72-0.19c0.33-0.01,0.64,0.02,0.93,0.21c0.23,0.24,0.26,0.54,0.26,0.84c-0.17,0.54,0.36,0.69,0.56,1.02
				c0.04,0.19,0,0.35-0.16,0.48C40.37,23.55,40.13,23.48,39.9,23.37z"/>
			<path class="st13" d="M41.16,18.83c0.09,0.22,0.18,0.44,0.26,0.66c-0.03,0.04-0.06,0.09-0.09,0.13c-0.92-0.28-1.38,0.7-2.16,0.8
				c-0.11-0.03-0.2-0.09-0.27-0.17c-0.12-0.19-0.13-0.4-0.09-0.62c0.05-0.24,0.11-0.49,0.03-0.74c-0.01-0.05-0.02-0.1-0.03-0.15
				c-0.02-0.1-0.02-0.21-0.01-0.31c0.04-0.29,0.22-0.48,0.46-0.62c0.09-0.05,0.2-0.08,0.3-0.1c0.54-0.02,0.82,0.4,1.19,0.67
				C40.93,18.49,41.02,18.68,41.16,18.83z"/>
			<path class="st14" d="M12,26.7c0,0.64,0,1.27,0,1.91c-0.17,0.11-0.05,0.47-0.37,0.45c-0.08-1.83-0.28-3.67,0.11-5.49
				c0.06,0.03,0.11,0.07,0.17,0.1c0.23,0.25,0.34,0.56,0.39,0.89C12.31,25.29,12.51,26.04,12,26.7z"/>
			<path class="st15" d="M12.2,22.1c-0.02-0.07-0.01-0.13,0.06-0.18c0.16-0.41,0.09-0.96,0.7-1.08c0.32-0.08,0.59,0.04,0.86,0.18
				c0.35,0.23,0.85,0.35,0.61,0.95c-0.34,0.31-0.75,0.49-1.17,0.65C12.83,22.61,12.24,22.89,12.2,22.1z"/>
			<path class="st16" d="M14.13,16.63c0.42,0.44,0.42,0.44,0.83-0.47c0.21,0.17,0.41,0.34,0.62,0.51c0.21,0.2,0.21,0.43,0.13,0.68
				c-0.15,0.29-0.4,0.43-0.72,0.45c-0.72-0.13-0.85,0.79-1.47,0.83c-0.26-0.15-0.21-0.37-0.12-0.59
				C13.54,17.51,13.8,17.05,14.13,16.63z"/>
			<path class="st17" d="M17.01,12.59c0.4,0.43,0.78,0.87,0.96,1.45c0.08,0.08,0.14,0.17,0.17,0.28c0.02,0.17-0.02,0.33-0.13,0.46
				c-0.66,0.26-0.92-0.61-1.51-0.54c-0.16,0.01-0.31,0.01-0.47-0.03c-0.1-0.04-0.18-0.1-0.25-0.19
				C16.2,13.55,16.6,13.07,17.01,12.59z"/>
			<path class="st18" d="M15.79,14.03c0.09,0.01,0.18,0.01,0.27,0.02c0.31,0.32,0.53,0.69,0.61,1.14c-0.01,0.11-0.06,0.21-0.14,0.29
				c-0.57,0.55-1.13,0.3-1.69-0.03C14.95,14.83,15.47,14.49,15.79,14.03z"/>
			<path class="st19" d="M22.75,9.98c-0.16,0-0.32,0-0.48,0c-0.32,0.25-0.64,0.25-0.96,0c-0.33-0.01-0.67-0.01-1-0.02
				c1.5-1.02,2.15-1.03,3.47-0.05c-0.03,0.02-0.06,0.05-0.09,0.08C23.37,10.24,23.06,10.23,22.75,9.98z"/>
			<path class="st20" d="M42.14,21.2c0.34,0.41,0.19,0.91,0.2,1.36c0.02,0.58,0.15,1.26-0.49,1.59c-0.69,0.35-1.16-0.19-1.65-0.56
				c0.55-0.27,1.37-0.15,1.47-1.05C41.86,22.11,41.67,21.54,42.14,21.2z"/>
			<path class="st21" d="M16.28,39.61c-0.46-0.56-0.92-1.13-1.38-1.69c0.23-0.24,0.45-0.49,0.68-0.72l0,0
				c0.6-0.33,0.89-0.03,0.99,0.52c0.1,0.57,0.15,1.16-0.12,1.72C16.39,39.5,16.34,39.56,16.28,39.61z"/>
			<path class="st22" d="M42.57,44.11c0,0.09,0.01,0.17,0.01,0.26c-1.22,0.68-2.41,1.42-3.82,1.68c-0.09-0.08-0.13-0.18-0.12-0.29
				c0.11-0.38,0.45-0.45,0.75-0.58c0.24-0.09,0.49-0.15,0.73-0.25c0.32-0.13,0.63-0.28,0.91-0.48c0.25-0.17,0.51-0.34,0.79-0.46
				c0.1-0.04,0.2-0.06,0.31-0.06C42.3,43.93,42.45,43.98,42.57,44.11z"/>
			<path class="st23" d="M12.2,22.1c0.32,0.47,0.81,0.25,1.23,0.3c0.61,0.53-0.06,0.75-0.25,1.09c-0.45,0.22-0.9,0.46-1.4,0.12
				l-0.04-0.05C11.73,23.02,12,22.57,12.2,22.1z"/>
			<path class="st24" d="M13.91,32.43c0.14,0.64-0.62,1.03-0.48,1.67c-0.01,0.2-0.05,0.39-0.25,0.5c-0.35-0.51-0.57-1.08-0.69-1.69
				c0.38,0,0.28-0.42,0.5-0.57c0.09-0.06,0.19-0.1,0.3-0.12C13.54,32.19,13.74,32.26,13.91,32.43z"/>
			<path class="st25" d="M37.32,17.14c0.43-0.11,0.89-0.14,1.21-0.51c0.31,0.16,0.62,0.33,0.93,0.49c0.13,0.13,0.34,0.21,0.32,0.44
				c-0.06,0.15-0.21,0.19-0.31,0.29l0,0c-0.78,0.11-1.58,0.36-2.2-0.41C37.24,17.34,37.26,17.24,37.32,17.14z"/>
			<path class="st26" d="M38.75,45.79c0,0.09,0.01,0.18,0.01,0.27c-1.56,0.51-3.11,1.11-4.81,0.92c0.17-0.08,0.33-0.16,0.5-0.24
				c0.91-0.53,1.92-0.7,2.94-0.86c0.17-0.05,0.34-0.09,0.52-0.13C38.19,45.68,38.48,45.56,38.75,45.79z"/>
			<path class="st27" d="M20.39,43.57c-0.58-0.51-1.16-1.03-1.75-1.54c0.03-0.05,0.06-0.09,0.09-0.14c0.09-0.06,0.2-0.11,0.31-0.13
				c0.22-0.04,0.45-0.04,0.67-0.01c0.3,0.05,0.51,0.22,0.64,0.49c0.12,0.24,0.27,0.47,0.41,0.71c0.11,0.26,0.27,0.51,0.05,0.79
				C20.64,43.76,20.47,43.79,20.39,43.57z"/>
			<path class="st28" d="M26.81,30.04c0.11,0.01,0.21,0.02,0.32,0.03c-0.1,0.62-0.08,1.23,0.2,1.81c-0.08,0.04-0.16,0.08-0.25,0.11
				c-0.24,0.44,0.18,0.99-0.24,1.41c-0.89-0.22-0.43-1.03-0.68-1.53c-0.08-0.35-0.06-0.7,0.09-1.04c0.11-0.25,0.23-0.5,0.43-0.71
				C26.72,30.1,26.77,30.07,26.81,30.04z"/>
			<path class="st29" d="M13.41,18.04c0.03,0.21,0.05,0.42,0.26,0.54c0.21,0.17,0.23,0.4,0.22,0.65c-0.15,0.7-0.55,1.16-1.26,1.32
				c-0.05-0.02-0.11-0.04-0.16-0.07C12.48,19.55,13,18.81,13.41,18.04z"/>
			<path class="st30" d="M24.66,12.13c-0.3-0.03-0.79,0.02-0.65-0.44c0.19-0.62-0.18-1.17-0.07-1.75c0.57,0.09,0.67,0.63,0.95,1
				C24.69,11.31,25.08,11.8,24.66,12.13z"/>
			<path class="st31" d="M29.44,25.98c-0.24,0-0.48,0-0.72,0c-0.1,0.08-0.2,0.08-0.3,0c-0.09-0.16-0.1-0.33-0.05-0.5
				c0.2-0.29,0.39-0.6,0.82-0.46c0.61-0.04,0.99,0.19,0.95,0.87c-0.08,0.03-0.16,0.06-0.23,0.09C29.76,26.12,29.6,26.12,29.44,25.98
				z"/>
			<path class="st32" d="M20.39,43.57c0.15,0.02,0.29,0.04,0.44,0.06c0.55-0.13,0.84,0.35,1.26,0.53c0.14,0.08,0.28,0.14,0.43,0.2
				c0.41,0.23,1.01,0.27,0.94,0.96c-0.16,0-0.32,0-0.48,0C21.92,45.04,21.11,44.37,20.39,43.57z"/>
			<path class="st33" d="M42.14,21.2c-0.16,0.47,0.13,1.03-0.27,1.45c-0.48,0.09-0.49-0.29-0.58-0.59c0.01-0.11,0.04-0.21,0.09-0.3
				c0.24-0.37,0.22-0.76,0.1-1.16c-0.03-0.1-0.06-0.2-0.09-0.3c-0.05-0.25-0.16-0.5-0.02-0.75l0.06-0.06
				C42.31,19.79,41.98,20.59,42.14,21.2z"/>
			<path class="st34" d="M41.38,21.92c0.16,0.24,0.32,0.48,0.48,0.72c0.14,1.55-1.04,0.77-1.68,0.94c-0.1-0.07-0.19-0.14-0.29-0.22
				c0.26-0.01,0.51-0.01,0.77-0.02c0.14-0.15,0.35-0.23,0.37-0.47c-0.06-0.26-0.27-0.47-0.19-0.76
				C40.98,21.94,41.13,21.81,41.38,21.92z"/>
			<path class="st35" d="M37.32,23.11c0.79,0.12,1.63-0.23,2.39,0.24c-1.27-0.01-2.55-0.02-3.82-0.03
				c-0.07-0.12-0.04-0.23,0.07-0.31c0.28-0.16,0.58-0.18,0.89-0.15C37.03,22.89,37.19,22.97,37.32,23.11z"/>
			<path class="st36" d="M34.45,13.09c0.01-0.18,0.02-0.36,0.03-0.54c0.15,0.18,0.3,0.35,0.45,0.53c0.61,0.33,0.2,0.99,0.45,1.44
				c0.03,0.07,0.04,0.14,0.05,0.21c0.11,0.25-0.05,0.32-0.24,0.37c-0.2-0.01-0.33-0.13-0.43-0.3C34.67,14.23,34.29,13.7,34.45,13.09
				z"/>
			<path class="st37" d="M35.17,15c0.08-0.09,0.17-0.18,0.25-0.27c0.09,0.07,0.17,0.13,0.26,0.2c0.2,0.41-0.12,0.99,0.43,1.27v0.02
				c0.08,0.05,0.11,0.09,0.09,0.14c-0.03,0.05-0.05,0.08-0.08,0.08c-0.5,0.1-0.82-0.26-1.19-0.48c-0.17-0.25-0.04-0.49,0.04-0.73
				C35.03,15.14,35.09,15.06,35.17,15z"/>
			<path class="st38" d="M35.89,23.12c0,0.07,0,0.13,0,0.2c-0.21,0.02-0.43,0.04-0.64,0.06c-0.12,0.08-0.25,0.08-0.37-0.01
				c-0.21-0.31-0.21-0.62-0.02-0.93c0.28-0.26,0.56-0.26,0.86-0.02C35.88,22.62,35.92,22.86,35.89,23.12z"/>
			<path class="st39" d="M19.85,10.13c-0.46,0.45-0.37,1.53-1.46,1.27C18.82,10.89,19.28,10.44,19.85,10.13z"/>
			<path class="st40" d="M39.47,17.86c0.08-0.08,0.16-0.16,0.24-0.24c0.11-0.16,0.27-0.22,0.46-0.18c0.16,0.16,0.32,0.32,0.49,0.49
				c0.18,0.21,0.19,0.43,0.01,0.65C40.23,18.41,40.03,17.84,39.47,17.86z"/>
			<path class="st41" d="M17.94,41.3c-0.53-0.09-0.64-0.64-1-0.92c0.01-0.05,0.03-0.1,0.04-0.15c0.13-0.18,0.29-0.27,0.52-0.24
				c0.25,0.1,0.42,0.28,0.56,0.5c0.1,0.19,0.12,0.38,0.07,0.59C18.1,41.17,18.03,41.25,17.94,41.3z"/>
			<path class="st42" d="M15.58,37.21c0.05,0.5-0.15,0.77-0.68,0.72c-0.06-0.03-0.09-0.08-0.08-0.15
				C14.86,37.3,15.17,37.17,15.58,37.21z"/>
			<path class="st43" d="M12.21,31.53c0.1-0.41-0.14-0.9,0.27-1.25c0.15,0.12,0.22,0.28,0.25,0.47c0.04,0.24,0.04,0.48,0.04,0.72
				c-0.01,0.3-0.02,0.61-0.18,0.88c-0.05,0.04-0.09,0.08-0.14,0.11C12.37,32.15,12.29,31.84,12.21,31.53z"/>
			<path class="st44" d="M12.96,20.97c-0.23,0.32-0.47,0.63-0.7,0.95c0.03-0.48-0.13-1,0.21-1.43l0.03,0.02
				c0.13,0.12,0.3,0.19,0.41,0.34C12.92,20.88,12.94,20.92,12.96,20.97z"/>
			<path class="st45" d="M13.18,34.6c0.02-0.2,0.05-0.39,0.25-0.5c0.36,0.36,0.33,0.7-0.08,1C13.17,34.98,13.18,34.79,13.18,34.6z"
				/>
			<path class="st46" d="M36.13,16.43c0-0.07,0-0.14-0.01-0.22c0.67,0.08,1.37-0.13,2.03,0.19C37.47,16.41,36.8,16.42,36.13,16.43z"
				/>
			<path class="st41" d="M18.65,42.03c-0.4-0.08-0.48-0.48-0.71-0.73l0.05-0.05c0.74-0.26,0.97-0.02,0.71,0.72L18.65,42.03z"/>
			<path class="st47" d="M34.93,23.33c0.1,0.02,0.21,0.03,0.31,0.05c-0.46,0.28-0.98,0.18-1.48,0.23c-0.09-0.08-0.17-0.17-0.26-0.25
				C33.97,22.94,34.45,23,34.93,23.33z"/>
			<path class="st48" d="M35.37,14.51c-0.15-0.48-0.3-0.96-0.45-1.44C35.73,13.35,35.29,14.02,35.37,14.51z"/>
			<path class="st49" d="M33.95,12.14c-0.31-0.24-0.62-0.47-0.94-0.71C33.51,11.43,33.92,11.53,33.95,12.14z"/>
			<path class="st50" d="M28.48,10.97c-0.33,0.33-0.73,0.48-1.2,0.44C27.63,11.15,27.99,10.89,28.48,10.97z"/>
			<path class="st30" d="M25.48,12.33c-0.23,0.03-0.44,0.02-0.59-0.2c-0.16-0.35-0.21-0.69,0.04-1.02
				C25.21,11.48,24.97,12.07,25.48,12.33z"/>
			<path class="st51" d="M36.12,16.2c-0.78-0.21-0.4-0.81-0.43-1.27C35.83,15.35,35.97,15.77,36.12,16.2z"/>
			<path class="st52" d="M11.62,29.06c0.12-0.15,0.25-0.3,0.37-0.45c-0.05,0.4,0.15,0.84-0.21,1.19
				C11.73,29.55,11.68,29.3,11.62,29.06z"/>
			<path class="st53" d="M24.94,11.11c-0.01,0.34-0.03,0.68-0.04,1.02c-0.08,0-0.16,0-0.24,0c0.06-0.4-0.15-0.85,0.23-1.19
				C24.95,10.98,24.97,11.04,24.94,11.11z"/>
			<path class="st54" d="M12.96,32.43c-0.03,0.27,0.14,0.75-0.46,0.48c-0.02-0.15-0.03-0.3-0.05-0.45l0.05-0.05
				c0.1-0.11,0.23-0.12,0.36-0.07C12.89,32.37,12.93,32.4,12.96,32.43z"/>
			<path class="st41" d="M16.95,40.38c-0.22-0.26-0.44-0.51-0.66-0.77l0.04-0.04c0.08-0.07,0.18-0.11,0.29-0.12
				c0.11,0.02,0.21,0.06,0.3,0.12c0.2,0.21,0.33,0.44,0.11,0.72L16.95,40.38z"/>
			<path class="st55" d="M40.66,18.58c0-0.22-0.01-0.44-0.01-0.65c0.29,0.23,0.45,0.54,0.51,0.9C41,18.75,40.83,18.66,40.66,18.58z"
				/>
			<path class="st56" d="M40.17,17.44c-0.15,0.06-0.3,0.12-0.46,0.18c-0.08-0.16-0.17-0.33-0.25-0.49
				C39.76,17.09,40.03,17.12,40.17,17.44z"/>
			<path class="st57" d="M29.44,25.98c0.16,0,0.32,0,0.48,0c-0.26,0.2-0.19,0.76-0.72,0.69C29.28,26.44,29.36,26.21,29.44,25.98z"/>
			<path class="st58" d="M17.97,15.71c0-0.08,0-0.16,0-0.24c-0.06-0.05-0.08-0.11-0.07-0.18c0.01-0.06,0.02-0.1,0.04-0.1
				c0.32-0.16,0.63-0.36,0.99-0.44c2.4,0,4.8-0.05,7.2,0.02c1.05,0.03,1.9-0.67,3-0.53c1.13,0.15,2.29-0.02,3.42,0.27
				c0.42-0.26,0.8-0.35,1.05,0.22c-0.04,0.75-0.5,1.02-1.18,1.05c-1.93-0.38-3.84,0.21-5.76,0.1c-2.53-0.15-5.04,0.29-7.57,0.18
				C18.67,16.05,18.29,15.99,17.97,15.71z"/>
			<path class="st59" d="M34.45,13.09c0.28,0.52,0.57,1.04,0.48,1.67c-0.18,0.19-0.39,0.21-0.63,0.14c-0.1-0.05-0.18-0.12-0.25-0.21
				c-0.16-0.38-0.52-0.6-0.8-0.88l0,0c-0.18-0.24-0.47-0.32-0.72-0.48c0-0.08,0-0.16,0-0.24c-0.26-0.24-0.35-0.54-0.33-0.89
				c0-0.24,0.18-0.39,0.33-0.54C33.18,12.14,33.45,13.1,34.45,13.09z"/>
			<path class="st60" d="M21.31,9.98c0.32,0,0.64,0,0.96,0c-0.1,0.31,0.47,0.7-0.06,0.91c-0.29,0.11-0.46,0.6-0.78,0.39
				C20.93,10.94,21.49,10.41,21.31,9.98z"/>
			<path class="st61" d="M17.97,14.28c0-0.08,0-0.16,0-0.24c0.08-0.33-0.19-0.95,0.41-0.85c0.54,0.09,0.22,0.71,0.31,1.09
				c0.24,0.38,0.02,0.68-0.3,0.71C17.92,15.04,18.23,14.46,17.97,14.28z"/>
			<path class="st62" d="M33.26,13.8c0.51-0.02,0.92,0.1,0.96,0.72c-0.17,0.28-0.37,0.49-0.72,0.24c-0.25-0.35-0.63-0.2-0.96-0.24
				C32.5,14,33.1,14.11,33.26,13.8z"/>
			<path class="st63" d="M22.75,9.98c0.31,0,0.63,0.01,0.94,0.01c-0.08,0.39-0.15,0.79-0.23,1.18c-0.11,0.19-0.22,0.35-0.48,0.24
				C22.7,10.97,22.74,10.47,22.75,9.98z"/>
			<path class="st64" d="M22.99,11.41c0.16-0.08,0.32-0.16,0.48-0.24c0.13,0.28,0.33,0.57-0.04,0.82c-0.17,0.11-0.37,0.17-0.53,0
				C22.68,11.78,22.78,11.58,22.99,11.41z"/>
			<path class="st65" d="M32.3,12.13c0.16,0.3,0.28,0.61,0.24,0.95c-0.31,0-0.65,0.03-0.83-0.3c-0.19-0.36,0.27-0.41,0.35-0.65
				C32.15,12.07,32.22,12.07,32.3,12.13z"/>
			<path class="st66" d="M28.94,10.92c0.78,0,1.56,0,2.35,0C30.5,11.05,29.7,11.44,28.94,10.92L28.94,10.92z"/>
			<path class="st67" d="M17.97,14.28c0.31,0.04,0.09,0.62,0.49,0.5c0.12-0.03,0.15-0.33,0.23-0.5c0.19,0.1,0.23,0.28,0.24,0.48
				c-0.22,0.36-0.41,0.78-0.96,0.48c-0.13-0.16-0.15-0.32,0-0.48C17.97,14.6,17.97,14.44,17.97,14.28z"/>
			<path class="st68" d="M27.54,11.92c0.43-0.37,0.73-0.27,1.16-0.11C28.32,12.21,28.01,12.19,27.54,11.92z"/>
			<path class="st69" d="M32.3,12.13h-0.12h-0.12c-0.21-0.04-0.64,0.02-0.56-0.23c0.16-0.49,0.68-0.17,1.03-0.25
				C32.54,11.85,32.5,12.03,32.3,12.13z"/>
			<path class="st36" d="M32.54,13.32c0.52-0.26,0.68,0.01,0.72,0.48C32.91,13.8,32.57,13.81,32.54,13.32z"/>
			<path class="st70" d="M29.2,25.03c-0.24,0.16-0.48,0.32-0.72,0.48c-0.51-0.11-1.02,0.02-1.53,0.04c-0.29,0-0.55,0.09-0.78,0.26
				c-0.07,0.04-0.15,0.05-0.23,0.04c-0.15,0,0.02-0.16-0.08-0.04c-0.13,0.14,0.11,0.13,0.09,0.23c0,0.1-0.02,0.18-0.08,0.26
				c-0.22,0.17-0.46,0.2-0.72,0.16c-3.28,0.24-6.58-0.01-9.85,0.45c-1.09,0.15-2.2,0.05-3.29-0.21c0-0.8,0-1.59,0-2.39
				c1.39-0.5,2.8-0.56,4.23-0.25c0.42,0.58,0.9,1.06,1.71,0.88c0.96-0.42,1.79-1.11,2.83-1.38c2.16-0.41,4.33-0.06,6.5-0.06
				c0.8,0,1.63-0.51,2.41,0.1C29.47,24.06,29.14,24.47,29.2,25.03z"/>
			<path class="st71" d="M12.48,30.76c0-0.16,0-0.32,0-0.48c-0.14-0.92,0.21-1.23,1.17-1.22c3.26,0.06,6.52,0.01,9.78,0.03
				c1.05,0.01,2.15,0.19,1.95-1.44c0.14-0.13,0.3-0.14,0.47-0.07c0.08,0.08,0.12,0.18,0.12,0.3c0.04,0.43,0.01,0.87,0.36,1.21
				c0.23,0.28,0.98,0.31,0.48,0.96l0,0c-0.29,0.21-0.31,0.58-0.51,0.85c-0.19,0.19-0.41,0.3-0.68,0.32
				c-0.47,0.1-0.95,0.16-1.42,0.14c-3.25-0.14-6.49,0.24-9.74,0.23C13.68,31.57,12.96,31.47,12.48,30.76z"/>
			<path class="st72" d="M25.85,27.65c-0.16,0-0.32,0-0.48,0c-0.4-0.33-0.18-0.79-0.24-1.19c0.17-0.28,0.45-0.23,0.72-0.24
				C26.7,26.7,26.43,27.17,25.85,27.65z"/>
			<path class="st73" d="M35.65,36.52c0.49-0.01,0.99-0.14,1.44,0.18c0.27,0.3,0.66,0.04,0.96,0.21c0.11,0.5-0.33,0.5-0.6,0.67
				c-0.1,0.04-0.21,0.07-0.31,0.09c-0.44,0.02-0.61,0.27-0.6,0.69c-0.15,0.54-0.02,1.21-0.67,1.53c-0.71-0.27-0.55-0.97-0.74-1.49
				c-0.03-0.4-0.29-0.68-0.51-0.99c-0.07-0.16-0.07-0.32,0.02-0.48c0.25-0.32,0.64-0.08,0.92-0.24
				C35.53,36.61,35.56,36.55,35.65,36.52z"/>
			<path class="st74" d="M44.76,36.67c1.08,0.57,1.64,1.74,1.29,2.84c-0.29,0.9-0.62,1.79-1.31,2.49c-0.2-0.16-0.22-0.38-0.18-0.61
				c0.02-0.11,0.06-0.21,0.12-0.31c0.3-0.45,0.44-0.97,0.59-1.49c0.13-0.39,0.19-0.79,0.06-1.2c-0.04-0.09-0.08-0.19-0.13-0.28
				c-0.17-0.44-0.78-0.57-0.78-1.13C44.47,36.82,44.59,36.72,44.76,36.67z"/>
			<path class="st75" d="M44.76,36.67c-0.09,0.1-0.18,0.2-0.27,0.29c-0.41,0.09-0.8,0.04-1.2-0.06c-0.28-0.08-0.57-0.16-0.85-0.24
				c-0.44-0.19-1,0-1.35-0.45C42.38,35.84,43.64,35.63,44.76,36.67z"/>
			<path class="st76" d="M42.57,44.11c-0.16,0-0.31,0.01-0.47,0.01c-0.13-0.21,0-0.37,0.1-0.54c0.15-0.19,0.31-0.37,0.45-0.57
				c0.09-0.12,0.2-0.23,0.31-0.33c0.25-0.19,0.39-0.51,0.71-0.62c0.29-0.01,0.6-0.06,0.59,0.39C43.92,43.23,43.1,43.52,42.57,44.11z
				"/>
			<path class="st77" d="M38.04,36.97c-0.33-0.04-0.71,0.12-0.95-0.26c1.26-0.06,2.5-0.34,3.77-0.24c0.26-0.13,0.32,0.03,0.33,0.24
				c-0.08,0.1-0.17,0.18-0.29,0.22c-0.29,0.1-0.6,0.09-0.9,0.1c-0.28,0-0.57-0.01-0.85,0c-0.22,0.01-0.44,0.06-0.65,0.09
				C38.31,37.14,38.16,37.11,38.04,36.97z"/>
			<path class="st78" d="M44.26,42.45c-0.18-0.27-0.46-0.23-0.73-0.23c-0.27-0.36-0.08-0.64,0.16-0.92
				c0.33-0.29,0.71,0.49,1.03-0.04c0,0.25,0,0.49,0.01,0.74C44.66,42.24,44.47,42.35,44.26,42.45z"/>
			<path class="st79" d="M41.14,36.73c-0.1-0.09-0.19-0.17-0.29-0.26c0.08-0.08,0.15-0.16,0.23-0.24c0.49,0.13,1.06-0.18,1.49,0.27
				c-0.3,0.34-0.7,0.44-1.13,0.42C41.32,36.88,41.22,36.82,41.14,36.73z"/>
			<path class="st80" d="M35.65,36.52c0,0.07,0,0.14,0,0.2c-0.29,0.21-0.64,0.07-0.95,0.13c-0.27,0.1-0.52,0.08-0.73-0.14
				c0.08-0.14,0.16-0.28,0.24-0.42C34.69,36.38,35.17,36.45,35.65,36.52z"/>
			<path class="st81" d="M18.93,16.67c3.29,0,6.58-0.03,9.86,0.02c0.96,0.01,1.88-0.2,2.82-0.26c1.77-0.11,3.51,0.11,5.23,0.48
				c0.27,0.8-0.21,0.89-0.79,0.77c-0.95-0.19-1.94-0.11-2.87-0.41c-0.33-0.11-0.6,0.08-0.89,0.22c-0.6,0.29-1.24,0.23-1.87,0.23
				c-3.6,0-7.21,0.01-10.81,0.01c-0.51,0-1.03-0.05-1.53,0.13c-0.58,0.07-1.18,0.25-1.62-0.35c-0.02-0.52,0.32-0.57,0.71-0.53
				c0.27,0.03,0.55,0.12,0.8-0.07l0,0C18.25,16.66,18.54,16.47,18.93,16.67z"/>
			<path class="st82" d="M18.93,16.67c-0.3,0.16-0.61,0.28-0.96,0.24c0-0.4,0-0.8,0-1.19c4.86-0.08,9.71-0.16,14.57-0.24
				c0.19,0.24,0.19,0.48,0,0.72c-1.71-0.94-3.41,0.24-5.14,0.04c-2.6-0.31-5.22,0.33-7.83,0.2C19.32,16.42,19.09,16.45,18.93,16.67z
				"/>
			<path class="st83" d="M32.54,17.14c0.06-0.4,0.26-0.6,0.63-0.32c0.98,0.74,2.24,0.08,3.27,0.68c0.2,0.12,0.38-0.3,0.41-0.59
				c0.2,0,0.37,0.05,0.48,0.24c0,0.08,0,0.16,0,0.24c0.14,0.41,0.77,0.58,0.54,1.16c-0.57,0.29-0.87-0.43-1.38-0.36
				c-0.11,0-0.23,0-0.34-0.01c-0.95,0.14-2.01-0.38-2.84,0.48c-0.18,0.09-0.37,0.11-0.57,0.06c-0.37-0.16-0.45-0.48-0.47-0.83
				C32.25,17.6,32.36,17.36,32.54,17.14z"/>
			<path class="st84" d="M32.54,16.19c0-0.24,0-0.48,0-0.72c0.62,0.16,0.67-0.44,0.96-0.72c0.24-0.08,0.48-0.16,0.72-0.24
				c0,0.08,0,0.16,0,0.24c0.18,0.2,0.28,0.44,0.28,0.72c0.01,0.28-0.1,0.51-0.28,0.72C33.66,16.19,33.1,16.19,32.54,16.19z"/>
			<path class="st85" d="M34.22,16.19c0-0.24,0-0.48,0-0.72c0.27-0.26,0.58-0.39,0.95-0.24c-0.08,0.24-0.16,0.48-0.24,0.72
				C34.69,16.03,34.45,16.11,34.22,16.19z"/>
			<path class="st86" d="M26.05,46.06c-0.81,0.07-1.39-0.54-2.1-0.75c-0.07-0.11-0.06-0.21,0.02-0.3c0.3-0.09,0.61-0.02,0.91-0.06
				c-0.3,0.01-0.6,0.01-0.9,0.01c-0.27,0.01-0.39-0.18-0.5-0.38c-0.12-0.37-0.42-0.41-0.75-0.42c-0.23-0.01-0.45-0.05-0.65-0.17
				c-0.09-0.08-0.13-0.18-0.12-0.3c0.06-0.1,0.14-0.17,0.25-0.23c0.61-0.19,1.23-0.11,1.84-0.02c-0.5-0.32-0.52-0.63,0.07-0.87
				c0.07-0.03,0.16-0.01,0.23-0.03c0.87-0.14,1.57,0.93,2.3,0.56c0.66-0.33,1.14-1.04,2-1.07c0.17-0.04,0.33-0.04,0.5-0.02
				c0.47,0.09,0.71,0.51,1.08,0.75c0.49,0.44,1.09,0.7,1.65,1.02c0.23,0.21,0.36,0.45,0.28,0.77c-0.1,0.23-0.28,0.36-0.53,0.37
				c-0.35-0.09-0.49-0.43-0.77-0.6c-0.49-0.23-1.08-0.2-1.47-0.66c0.17,0.19,0.23,0.41,0.29,0.63c0.04,0.59,0.71,0.6,0.93,1.02
				C29.28,46.68,27.63,46.14,26.05,46.06z"/>
			<path class="st87" d="M31.11,44.13c0.16,0.24,0.32,0.48,0.48,0.72c0.18,0.11,0.38,0.21,0.24,0.48c-0.4,0-0.8,0-1.19,0
				c-0.51-0.18-1.25-0.07-1.19-0.96C29.95,44,30.56,44.27,31.11,44.13z"/>
			<path class="st88" d="M37.6,46.06c-1.05,0.22-2.1,0.45-3.15,0.67c0.09-1.04,0.92-0.55,1.44-0.69
				C36.47,45.65,37.04,45.59,37.6,46.06z"/>
			<path class="st89" d="M31.83,46.28c-0.16-0.35-0.31-0.75,0.3-0.7c0.52,0.04,1.37-0.41,1.37,0.7
				C32.94,46.63,32.38,46.63,31.83,46.28z"/>
			<path class="st90" d="M36.13,45.56c-0.83-0.46-1.92-0.18-2.64-0.94c0.09-0.1,0.2-0.16,0.33-0.2c1.08,0.08,2.14,0.29,3.19,0.54
				c0.29,0.43-0.08,0.54-0.34,0.71C36.47,45.73,36.29,45.71,36.13,45.56z"/>
			<path class="st91" d="M36.13,45.56c0.16,0,0.32,0,0.48,0c1.22-0.36,1.25-0.35,1.42,0.45c-0.14,0.02-0.29,0.03-0.43,0.05
				c-0.57-0.01-1.14-0.01-1.71-0.02C35.76,45.77,35.71,45.55,36.13,45.56z"/>
			<path class="st92" d="M33.74,46.52c-1.16,0.5-2.37,0.15-3.56,0.19c-0.02,0-0.05-0.05-0.06-0.08c0-0.04,0.02-0.07,0.03-0.11
				C31.35,46.33,32.54,46.33,33.74,46.52z"/>
			<path class="st93" d="M33.74,44.61c-0.08,0-0.16,0.01-0.25,0.01c-0.32,0-0.63-0.01-0.95-0.01c-0.16,0.15-0.32,0.12-0.48,0
				c-0.08-0.24-0.16-0.47-0.24-0.71c0.12-0.15,0.29-0.21,0.47-0.23c0.56,0.02,1.04,0.25,1.46,0.62
				C33.83,44.4,33.83,44.5,33.74,44.61z"/>
			<path class="st94" d="M33.74,46.52c-1.19,0-2.39,0-3.58,0c0.5-0.46,1.12-0.15,1.67-0.24c0.56,0,1.11,0,1.67,0
				C33.58,46.36,33.66,46.44,33.74,46.52z"/>
			<path class="st95" d="M32.07,44.61c0.16,0,0.32,0,0.48,0c0.08,0.2,0.48,0.29,0.33,0.52c-0.24,0.38-0.69,0.12-1.05,0.19
				c-0.08-0.16-0.16-0.32-0.24-0.48C31.75,44.77,31.91,44.69,32.07,44.61z"/>
			<path class="st96" d="M29.68,23.59c-3.01,0.61-6.06-0.18-9.08,0.24c-0.8,0.07-1.6,0.03-2.39,0.19c-0.63,0.14-1.26,0.3-1.91,0.29
				c-0.96-0.52-1.91,0.21-2.88,0.02c-0.45-0.09-0.94-0.02-1.42-0.02c-0.07-0.23-0.15-0.46-0.22-0.7c0.47-0.09,0.95-0.17,1.42-0.26
				c0.59-0.15,1.19-0.08,1.79-0.11c1.45-0.21,2.85-0.49,4.36-0.28c1.97,0.27,3.95-0.16,5.91-0.48c2.11-0.34,4.19-0.3,6.09,0.87
				C30.85,23.81,30.23,23.5,29.68,23.59z"/>
			<path class="st97" d="M31.35,23.35c-1.57-0.2-3.07-0.8-4.7-0.75c-1.16,0.03-2.23,0.42-3.35,0.58c-2.81,0.41-5.66-0.4-8.43,0.41
				c-0.16-0.43-0.06-0.79,0.31-1.07c1.68-0.13,3.35-0.16,5.03,0.02c0.56,0.06,1.1,0,1.54-0.42c0.46-0.28,0.97-0.32,1.49-0.32
				c2.45-0.02,4.89,0.02,7.34-0.02c0.4-0.01,0.79,0.03,1.13,0.26c0.24,0.17,0.49,0.28,0.79,0.15c0.27-0.07,0.53-0.2,0.81-0.06
				c0.07,0.09,0.11,0.19,0.13,0.31c0.05,0.5-0.51,0.55-0.66,0.91c-0.08,0.08-0.16,0.16-0.24,0.24c-0.08,0.07-0.16,0.07-0.24,0
				C32.09,23.08,31.75,23.11,31.35,23.35z"/>
			<path class="st98" d="M32.78,23.35c0.16-0.32,0.32-0.64,0.48-0.96c0.49-0.4,1.02-0.04,1.53-0.08c0.05,0.03,0.09,0.05,0.14,0.08
				c0,0.31,0,0.62,0,0.93c-0.48,0.01-0.95,0.01-1.43,0.02C33.26,22.97,33.02,23.29,32.78,23.35z"/>
			<path class="st99" d="M32.31,23.59c0.08,0,0.16,0,0.24,0c0.22,0.47-0.07,0.5-0.42,0.48c-0.14-0.01-0.36,0.03-0.34-0.17
				C31.81,23.61,32.09,23.63,32.31,23.59z"/>
			<path class="st100" d="M12.48,30.76c1.57,0.84,3.29,0.59,4.89,0.41c2.19-0.23,4.36-0.12,6.54-0.15c0.65-0.01,1.29-0.33,1.94-0.03
				c0.21,0.22,0.37,0.45,0.25,0.77c-0.33,0.24-0.7,0.4-0.96,0.73c-0.94,0.45-1.94,0.31-2.9,0.17c-1.17-0.17-2.37-0.04-3.52-0.39
				c-0.2-0.06-0.38,0.06-0.55,0.16c-0.36,0.22-0.73,0.23-1.05-0.05c-0.32-0.28-0.55-0.1-0.78,0.12c-0.36,0.2-0.69,0.09-0.97-0.15
				c-0.38-0.31-0.79-0.27-1.22-0.17c-0.08,0-0.16,0-0.24,0c-0.32-0.15-0.53,0.01-0.72,0.24c-0.08,0-0.16,0-0.24,0l0,0
				c-0.31-0.24-0.2-0.69-0.47-0.95C12.48,31.24,12.48,31,12.48,30.76z"/>
			<path class="st101" d="M14.15,32.19c0.31-0.79,0.85-0.56,1.27-0.2c0.28,0.23,0.49,0.49,0.88,0.44c0.53-0.11,0.65,0.31,0.79,0.65
				c0.16,0.41,0.44,0.71,0.74,1.01c0.12,0.23,0.13,0.46,0.03,0.7c-0.13,0.21-0.33,0.33-0.55,0.42c-0.48,0.1-0.67,0.44-0.78,0.89
				c-0.13,0.48-0.42,0.76-0.93,0.39c-0.17-0.48-0.12-1.02-0.48-1.43c-0.26,0.13-0.38-0.03-0.48-0.24
				C14.89,33.86,14.83,32.97,14.15,32.19z"/>
			<path class="st102" d="M15.58,36.49c0.58,0.05,0.76-0.25,0.72-0.78c-0.06-0.75,0.36-0.84,0.95-0.65
				c0.37,0.42,0.34,1.07,0.82,1.42c0.11,0.23,0.12,0.46,0.01,0.68c-0.15,0.2-0.37,0.26-0.59,0.31c-0.1,0.03-0.21,0.04-0.31,0.07
				c-0.39,0.18-0.13,0.39-0.02,0.59c0.3,0.43,0.33,1.01,0.77,1.36c0.06,0.09,0.1,0.19,0.1,0.3c-0.11,0.23-0.31,0.28-0.54,0.29
				c-0.16,0.07-0.31,0.15-0.47,0.22c-0.08-0.23-0.17-0.47-0.25-0.7c-0.08-0.19-0.16-0.09-0.24,0c-0.07,0-0.15-0.01-0.22-0.02
				c-0.01-0.54-0.04-1.07-0.02-1.61c0.02-0.53-0.17-0.8-0.72-0.76C15.58,36.97,15.58,36.73,15.58,36.49z"/>
			<path class="st103" d="M14.63,34.82c0.16,0.08,0.32,0.16,0.48,0.24c0.05,0.55-0.26,0.95-0.72,1.03
				c-0.34,0.06-0.33-0.47-0.41-0.73C13.84,34.81,14.27,34.83,14.63,34.82z"/>
			<path class="st104" d="M13.19,32.43c0.03-0.25-0.07-0.59,0.3-0.66c0.31-0.06,0.38,0.18,0.42,0.42c0,0.08,0,0.16,0,0.24
				C13.67,32.43,13.43,32.43,13.19,32.43z"/>
			<path class="st105" d="M29.44,34.82c0.6,0.25,1.23,0.44,1.67,0.96c-0.23,0.29-0.55,0.34-0.88,0.35c-0.49-0.17-0.7,0.27-1,0.49
				c-0.07,0.08-0.28,0.08-0.21,0.25c0.03,0.07,0.19,0.04,0.29,0.03c0.3-0.04,0.44-0.34,0.7-0.45c0.1-0.01,0.19,0.02,0.27,0.09
				c0.17,0.26,0.43,0.41,0.72,0.51c0.09,0.05,0.17,0.13,0.23,0.22c0.05,0.53,0.08,1.07-0.02,1.6c-0.3,0.31-0.7,0.5-1.01,0.8
				c-0.38,0.11-0.76,0.18-1.15,0.14c-1.25-0.8,0.21-1.17,0.3-1.92c-1.23-0.01-1.87-0.75-2.08-1.92c0-0.72-0.28-1.47,0.15-2.16
				c0.57-0.04,0.54,0.41,0.64,0.77c0.08,0.31-0.07,0.72,0.36,0.89c0.44,0.19,0.65-0.06,0.81-0.42
				C29.28,34.94,29.35,34.87,29.44,34.82z"/>
			<path class="st106" d="M31.11,37.21c-0.08,0-0.16,0-0.24,0c0.19-0.66-0.5-0.45-0.72-0.72l0,0c-0.15-0.16-0.13-0.32,0-0.48
				c0.3-0.16,0.61-0.28,0.96-0.24c0.42,0.11,0.86,0.15,1.19,0.48c0.13,0.14,0.12,0.33,0.21,0.48c0.07,0.13,0.12,0.26,0.08,0.42
				c-0.14,0.25-0.36,0.38-0.62,0.45C31.6,37.65,31.34,37.46,31.11,37.21z"/>
			<path class="st107" d="M28.48,35.77c-0.49,0.03-0.72-0.16-0.73-0.68c0-0.41,0.17-0.88-0.23-1.23c-0.18-0.11-0.36-0.22-0.24-0.48
				c0.63-0.06,1.15,0.1,1.43,0.72c-0.1,0.3-0.1,0.6-0.02,0.9C28.73,35.29,28.72,35.56,28.48,35.77z"/>
			<path class="st108" d="M26.8,33.38c0.11-0.46-0.23-1.01,0.28-1.38c0,0.07,0,0.14,0,0.21c0.12,1.18,0.21,2.36,0.21,3.55
				c-0.05,0.48,0.35,0.89,0.2,1.38c-0.07,0.2-0.18,0.36-0.41,0.37c-0.35-0.14-0.47-0.43-0.53-0.76c-0.05-0.38-0.03-0.76-0.04-1.14
				c-0.01-0.13-0.01-0.25,0-0.38c0.01-0.38,0-0.76,0.02-1.14C26.53,33.82,26.59,33.57,26.8,33.38z"/>
			<path class="st109" d="M27.06,36.01c0.01-1.27,0.01-2.53,0.02-3.8c0.35,0.34,0.15,0.78,0.21,1.18c0.08,0.16,0.16,0.32,0.24,0.48
				c0,0.72,0,1.43,0,2.15C27.37,36.16,27.22,36.15,27.06,36.01z"/>
			<path class="st110" d="M32.54,36.97c-0.08-0.08-0.16-0.16-0.24-0.24c0.4-0.33,0.8-0.16,1.2,0c0.16,0,0.31,0,0.47,0
				c0.24,0,0.48,0,0.72,0c0.08,0.05,0.11,0.11,0.08,0.16c-0.03,0.05-0.06,0.08-0.08,0.08c0,0.16,0,0.32,0,0.48
				c-0.05,0.03-0.1,0.05-0.15,0.08c-0.44,0.02-0.88-0.04-1.31-0.1C32.95,37.35,32.72,37.2,32.54,36.97z"/>
			<path class="st111" d="M28.48,34.82c-0.39-0.4-0.27-0.62,0.24-0.72c0.32,0.15,0.56,0.39,0.72,0.71c0,0.08,0,0.16,0,0.24
				C29.05,35.24,28.76,35.07,28.48,34.82z"/>
			<path class="st80" d="M33.5,36.73c-0.4,0-0.8,0-1.2,0c-0.27-0.16-0.02-0.32,0-0.48C32.77,36.24,33.19,36.35,33.5,36.73z"/>
			<path class="st112" d="M28.48,26.7c-0.28,1.04-1.09,1.01-1.91,0.95c-0.5-0.5-0.59-1.02-0.04-1.55c0.33,0.01,0.7,0.23,0.96-0.18
				c0.1-0.04,0.2-0.03,0.3,0C28.02,26.19,28.27,26.43,28.48,26.7z"/>
			<path class="st2" d="M26.81,26.22c-0.88,0.34-0.42,0.91-0.24,1.43c-0.2,0.01-0.37,0.05-0.48,0.24c-0.08,0.11-0.16,0.11-0.24,0
				c0-0.08,0-0.16,0-0.24c0.21-0.48,0.46-0.96,0-1.43c0-0.08,0-0.16,0-0.24c-0.06-0.05-0.08-0.11-0.06-0.16
				c0.02-0.05,0.04-0.08,0.06-0.08c0.08,0,0.16,0,0.24,0c0.19-0.02,0.37,0,0.54,0.06c0.09,0.04,0.16,0.09,0.22,0.16
				C26.89,26.06,26.87,26.14,26.81,26.22z"/>
			<path class="st113" d="M28.48,26.7c-0.53,0.05-0.77-0.19-0.72-0.72c0.24-0.21,0.48-0.19,0.72,0c0.08,0,0.16,0,0.24,0
				C28.71,26.24,28.76,26.53,28.48,26.7z"/>
			<path class="st114" d="M25.85,27.89c0.08,0,0.16,0,0.24,0c0.08,0.4,0.16,0.8,0.24,1.19C25.36,29.01,26.08,28.26,25.85,27.89z"/>
			<path class="st115" d="M17.97,14.76c0,0.16,0,0.32,0,0.48c0,0.08,0,0.16,0,0.24c-0.48,0.17-0.96,0.17-1.43,0
				c0-0.08,0-0.16,0-0.24c0.29-0.4-0.15-0.8,0-1.19C17.34,13.62,17.33,14.84,17.97,14.76z"/>
			<path class="st116" d="M17.97,16.91c-0.36,0.5-1.07-0.03-1.43,0.48c-0.32,0.27-0.64,0.27-0.96,0c0-0.24,0-0.48,0-0.72
				C16.43,16.2,17.16,16.99,17.97,16.91z"/>
			<path class="st117" d="M23.94,45.09c0,0.08,0,0.15,0,0.23c-0.16,0-0.32,0.01-0.48,0.01c-0.23-0.5-0.76-0.55-1.18-0.75
				c0.01-0.51,0.41-0.39,0.71-0.44c0.27-0.01,0.52,0.04,0.72,0.23c0.01,0.2,0.05,0.38,0.24,0.48c0.08,0.05,0.11,0.11,0.08,0.16
				C24,45.06,23.97,45.09,23.94,45.09z"/>
			<path class="st118" d="M35.65,22.64c-0.17-0.28-0.45-0.23-0.72-0.24l0,0c-0.15-0.17-0.14-0.35-0.04-0.54
				c0.66-0.72,1.47-1.08,2.47-0.97c0.34,0.01,0.67,0.04,0.92,0.32c0,0.32,0,0.64,0,0.95C37.36,22.08,36.6,22.89,35.65,22.64z"/>
			<path class="st119" d="M41.38,21.92c-0.16,0.08-0.32,0.16-0.48,0.24c-0.32,0.27-0.64,0.27-0.96,0c0-0.32,0-0.64,0-0.95
				c0.91-1.2,1.22-1.21,1.73-0.06C41.8,21.49,41.68,21.74,41.38,21.92L41.38,21.92z"/>
			<path class="st120" d="M41.62,21.21c-0.56-1.39-1.11,0.03-1.67,0c-0.32,0-0.64,0-0.96,0c-0.21-0.18-0.6-0.28-0.45-0.67
				c0.1-0.26,0.38-0.17,0.6-0.16c0.82-0.05,1.61-0.87,2.47-0.12c0,0.08,0,0.16,0,0.24C41.79,20.73,41.78,20.97,41.62,21.21z"/>
			<path class="st121" d="M35.65,22.64c0.88-0.11,1.61-1.11,2.63-0.48l0,0c0.14,0.16,0.14,0.32,0,0.48c-0.08,0-0.16,0-0.24,0
				c-0.37,0.22-0.91,0.03-1.19,0.47c-0.32,0-0.64,0-0.96,0.01C35.7,23.01,35.65,22.83,35.65,22.64z"/>
			<path class="st122" d="M38.99,20.49c-0.73,0.24,0.08,0.48,0,0.72c-0.24,0-0.48,0-0.72,0c-0.32,0-0.64,0-0.96,0
				c-0.08-0.09-0.14-0.19-0.18-0.31c-0.02-0.19,0.02-0.37,0.13-0.53c0.22-0.25,0.51-0.36,0.83-0.39c0.33-0.03,0.63,0.04,0.88,0.27
				l0,0c0.08,0.05,0.1,0.11,0.08,0.16C39.04,20.46,39.02,20.49,38.99,20.49z"/>
			<path class="st123" d="M39.95,22.16c0.32,0,0.64,0,0.96,0c0.16,0.24,0.32,0.48,0.48,0.72c-0.24,0.21-0.48,0.19-0.72,0
				C40.25,22.82,39.49,23.09,39.95,22.16z"/>
			<path class="st124" d="M36.85,23.11c0.03-1.08,0.84-0.19,1.19-0.47c-0.24,0.16-0.48,0.31-0.72,0.47
				C37.16,23.11,37.01,23.11,36.85,23.11z"/>
			<path class="st125" d="M40.66,22.88c0.24,0,0.48,0,0.72,0c0.24,0.89-0.48,0.32-0.72,0.48C40.67,23.19,40.66,23.04,40.66,22.88z"
				/>
			<path class="st126" d="M38.28,22.64c0-0.16,0-0.32,0-0.48c0.22,0.06,0.62-0.12,0.58,0.29C38.83,22.69,38.49,22.62,38.28,22.64z"
				/>
			<path class="st127" d="M36.6,17.86c0.56-0.03,0.75,0.55,1.19,0.72c0.4-0.32,0.8-0.32,1.19,0c0,0.08,0,0.16,0,0.24l0,0
				c0.31,0.24,0.31,0.48,0,0.72c-0.26,0.23-0.57,0.31-0.91,0.31c-0.39,0.01-0.77,0.01-1.13-0.17C36.61,19.12,36.24,18.56,36.6,17.86
				z"/>
			<path class="st128" d="M38.99,20.49c0-0.08,0-0.16,0-0.24c0.18-0.03,0.51-0.03,0.53-0.11c0.3-1.2,1.12-0.74,1.84-0.6
				c0.08,0.23,0.17,0.47,0.25,0.7C40.72,20.1,39.87,20.49,38.99,20.49z"/>
			<path class="st129" d="M38.99,18.58c-0.4,0-0.8,0-1.19,0c-0.16-0.4-0.32-0.8-0.48-1.19c0.66,0.42,1.46,0.19,2.15,0.48
				C39.32,18.11,38.95,18.21,38.99,18.58z"/>
			<path class="st130" d="M38.04,19.53c0.32,0,0.64,0,0.96,0c0,0.24,0,0.48,0,0.72c-0.32,0-0.64,0-0.96,0
				C37.85,20.01,37.85,19.77,38.04,19.53z"/>
			<path class="st131" d="M14.39,21.92c0.04-0.52-0.55-0.4-0.72-0.72c0.1-0.35-0.05-0.75,0.28-1.04c0.47-0.1,0.91,0.17,1.38,0.14
				c0.67,0.5,1.43,0.54,2.24,0.55c3.53,0.07,7.02-0.8,10.55-0.45c1.16,0.11,2.37-0.03,3.45,0.59c-0.18,0.7-0.79,0.55-1.25,0.57
				c-1.54,0.05-3.08,0.09-4.62,0c-2.34-0.13-4.6,0.57-6.92,0.6c-1.19,0.24-2.41,0.02-3.6,0.2C14.83,22.37,14.45,22.44,14.39,21.92z"
				/>
			<path class="st132" d="M14.39,21.92c0.17,0.28,0.45,0.23,0.72,0.24c0.13,0.16,0.14,0.32,0,0.48c0.04,0.35-0.08,0.66-0.24,0.96
				c-0.56-0.09-1.17,0.22-1.67-0.24c-0.15-0.38,0.52-0.55,0.24-0.96C13.61,21.96,13.98,21.9,14.39,21.92z"/>
			<path class="st44" d="M13.91,20.25c-0.12,0.31,0.59,0.82-0.24,0.95c-0.24-0.08-0.48-0.16-0.72-0.24l0,0
				C12.78,20.06,13.39,20.22,13.91,20.25z"/>
			<path class="st133" d="M15.58,17.38c0.32,0,0.64,0,0.96,0c0.42,0.43,0.96,0.16,1.43,0.24c0.28,0.01,0.57-0.02,0.79,0.22
				c0.23,0.72-0.08,1.08-0.74,0.79c-0.54-0.23-0.71,0.15-1.02,0.31c-0.39,0.18-0.79,0.18-1.2,0.08c-0.11-0.04-0.2-0.1-0.29-0.18
				c-0.14-0.45-0.63-0.71-0.64-1.22C15.11,17.54,15.34,17.46,15.58,17.38z"/>
			<path class="st134" d="M14.87,17.62c0.44,0.28,0.89,0.55,0.72,1.19c-0.36,1.27-1.19,0.63-1.91,0.48c0-0.24,0-0.48,0-0.72
				C14.05,18.24,13.86,17.19,14.87,17.62z"/>
			<path class="st135" d="M16.54,14.04c0.44,0.4,0.75,0.8,0,1.19c-0.21-0.37-0.58-0.69-0.48-1.19
				C16.22,14.04,16.38,14.04,16.54,14.04z"/>
			<path class="st136" d="M38.03,46.01c-0.26-0.83-0.95-0.29-1.42-0.45c0.16-0.15,0.32-0.29,0.48-0.44c0.25-0.32,0.59-0.3,0.93-0.26
				c0.48,0.2,1.1,0.02,1.49,0.49c-0.25,0.14-0.51,0.29-0.76,0.43C38.51,45.86,38.27,45.94,38.03,46.01z"/>
			<path class="st137" d="M42.34,43.65c-0.08,0.16-0.16,0.31-0.24,0.47c-0.06,0.02-0.13,0.04-0.2,0.03
				c-0.44,0.07-0.87,0.07-1.25-0.22c-0.18-0.21-0.22-0.45-0.17-0.71c0.08-0.26,0.25-0.42,0.52-0.47c0.12-0.01,0.23,0.01,0.35,0.04
				C41.71,43.03,42.04,43.32,42.34,43.65z"/>
			<path class="st138" d="M40.67,43.89c0.44-0.03,0.85,0.03,1.23,0.26c-0.23,0.16-0.47,0.32-0.7,0.48c-0.17,0.09-0.34,0.1-0.52,0.05
				c-0.21-0.19-0.22-0.41-0.13-0.66C40.59,43.98,40.63,43.94,40.67,43.89z"/>
			<path class="st139" d="M40.66,44.6c0.18,0.01,0.35,0.03,0.53,0.04c-0.27,0.3-0.65,0.34-1,0.46c-0.26,0.15-0.52,0.15-0.78-0.02
				C39.59,44.28,40.06,44.27,40.66,44.6z"/>
			<path class="st90" d="M39.47,45.08c0.24,0.01,0.49,0.01,0.73,0.02c-0.16,0.27-0.43,0.25-0.69,0.26
				c-0.48-0.12-1.03,0.15-1.47-0.23c0.07-0.12,0.18-0.2,0.3-0.25C38.75,44.77,39.14,44.75,39.47,45.08z"/>
			<path class="st140" d="M18.7,41.96c0.03-0.51-0.21-0.74-0.71-0.72c-0.01-0.23-0.01-0.47-0.02-0.7c0.5-0.57,1.26,0.05,1.78-0.39
				c0.21-0.18,0.35-0.42,0.51-0.64c0.82-1.14,1.64-1.06,2.36,0.21c0.02,0.88-1.14,0.93-1.22,1.74c-0.18,0.26-0.58,0.3-0.68,0.66
				c-0.14,0.22-0.26,0.46-0.6,0.33c-0.01-0.31-0.17-0.47-0.48-0.48c-0.24-0.3-0.48-0.3-0.72,0C18.85,41.98,18.78,41.97,18.7,41.96z"
				/>
			<path class="st141" d="M20.12,42.46c0.23-0.09,0.39-0.25,0.48-0.48c0.5-0.3,0.89-0.07,1.24,0.28c0.01,0.47,0.54,0.87,0.19,1.39
				l0,0c-0.69,0.19-1.05-0.29-1.43-0.72C20.37,42.85,20.21,42.69,20.12,42.46z"/>
			<path class="st117" d="M20.6,42.94c0.48,0.24,0.96,0.48,1.43,0.72c0,0.08,0,0.16,0,0.24c0.15,0.18,0.15,0.36-0.02,0.53
				c-0.39-0.26-0.78-0.53-1.18-0.79C20.76,43.4,20.68,43.17,20.6,42.94z"/>
			<path class="st142" d="M18.93,41.98c0.02-0.23,0.04-0.52,0.31-0.55c0.38-0.04,0.37,0.29,0.41,0.55
				C19.41,41.98,19.17,41.98,18.93,41.98z"/>
			<path class="st143" d="M26.81,36.73c0.09,0.24,0.19,0.48,0.28,0.71c0.27,0.29,0.39,0.69,0.69,0.97c0.07,0.08,0.12,0.16,0.17,0.25
				c0.16,0.32,0.31,0.64,0.53,0.93c0.59,0.9,1.21,1.78,1.98,2.54c0.08,0.16,0.1,0.32,0.06,0.49c-0.07,0.17-0.19,0.28-0.37,0.31
				c-0.52,0.03-0.53-0.61-0.96-0.72c-0.93-0.71-1.44-1.77-2.18-2.63c-1.01-1.34-0.94-2.96-1.21-4.5c-0.18-1-0.27-1.98,0.25-2.91
				c0.05-0.18,0.15-0.33,0.28-0.47c0.53,0.45-0.06,1.22,0.46,1.67c0,0.24,0,0.48,0,0.72c-0.33,0.39-0.31,0.79-0.02,1.19
				c0,0.08,0,0.17,0,0.25C26.64,35.94,26.6,36.34,26.81,36.73z"/>
			<path class="st114" d="M26.34,31.71c0,0.16-0.01,0.32-0.01,0.48c-0.1,0.07-0.2,0.07-0.3-0.01c-0.08-0.17-0.08-0.33,0.06-0.47
				c-0.08-0.24-0.16-0.48-0.24-0.72c0.16-0.08,0.32-0.16,0.48-0.24c0.08-0.11,0.16-0.11,0.23,0C26.41,31.05,26.29,31.36,26.34,31.71
				z"/>
			<path class="st144" d="M26.57,30.76c-0.08,0-0.16,0-0.23,0c0-0.35-0.01-0.7,0.48-0.72C26.73,30.28,26.65,30.52,26.57,30.76z"/>
			<path class="st145" d="M13.67,19.29c0.35,0.1,0.64-0.8,1.11,0.04c0.21,0.37,0.29-0.69,0.8-0.52l0,0c0.4,0.52,0.97,0.35,1.5,0.39
				c4.24-0.04,8.48-0.03,12.71-0.02c0.52,0,1.02-0.15,1.53-0.15c0.15,0.01,0.29,0.05,0.43,0.12c0.13,0.09,0.22,0.2,0.26,0.35
				c0.06,0.3,0.04,0.59-0.22,0.8c-3.26,0.32-6.54,0.07-9.81,0.25c-1.78,0.1-3.56-0.08-5.33,0.23c-0.63,0.11-1.11-0.71-1.79-0.29
				c-0.46,0.49-0.57-0.44-0.96-0.24c-0.3,0.26-0.92,0.1-0.96,0.72c-0.3-0.01-0.47-0.15-0.46-0.47
				C12.96,20.16,13.48,19.89,13.67,19.29z"/>
			<path class="st146" d="M28.48,25.98c-0.24,0-0.48,0-0.72,0c-0.08,0-0.16,0-0.24,0c-0.24,0.19-0.48,0.19-0.72,0l0,0
				c-0.19-0.24-0.19-0.48,0-0.72c0.52,0.37,1.25-0.82,1.67,0.24C28.48,25.66,28.48,25.82,28.48,25.98z"/>
			<path class="st147" d="M22.01,44.42c0.01-0.18,0.01-0.35,0.02-0.53c0.24,0,0.48,0,0.72,0c0.13,0.13,0.39,0.2,0.24,0.48
				c-0.25,0.01-0.53-0.04-0.71,0.21C22.19,44.52,22.1,44.47,22.01,44.42z"/>
			<path class="st128" d="M41.62,21.21c0-0.24,0-0.48,0-0.72c0.26,0.53,0.6,1.08-0.24,1.43C41.46,21.68,41.54,21.44,41.62,21.21z"/>
			<path class="st148" d="M35.17,15.23c-0.3,0.16-0.61,0.28-0.95,0.24c0-0.24,0-0.48,0-0.72c0.24,0,0.48,0,0.72,0
				c0.08,0.08,0.16,0.16,0.24,0.24C35.17,15.08,35.17,15.15,35.17,15.23z"/>
			<path class="st149" d="M19.88,40.55c-0.64-0.01-1.27,0.21-1.91,0c-0.23-0.09-0.39-0.25-0.48-0.48c0.1-0.19,0.28-0.23,0.48-0.24
				c0.56-0.27,1.13-0.32,1.72-0.1C19.94,39.96,20.11,40.21,19.88,40.55z"/>
			<path class="st150" d="M12.48,31.47c0.43,0.18,0.5,0.55,0.47,0.95c-0.15-0.01-0.3-0.02-0.45-0.02
				C12.49,32.09,12.49,31.78,12.48,31.47z"/>
			<path class="st151" d="M16.54,39.59c0.06-0.18-0.14-0.56,0.22-0.51c0.26,0.04,0.28,0.33,0.02,0.51
				C16.7,39.59,16.62,39.59,16.54,39.59z"/>
			<path class="st152" d="M17.97,23.83c0.88-0.39,1.75-0.39,2.63,0c-0.94,0.35-1.63,1.19-2.63,1.43
				C17.57,24.79,17.67,24.31,17.97,23.83z"/>
			<path class="st153" d="M17.97,23.83c0,0.48,0,0.96,0,1.43c-0.68-0.1-1.69,0.37-1.67-0.96C16.74,23.75,17.42,23.99,17.97,23.83z"
				/>
			<path class="st154" d="M26.81,25.26c0,0.24,0,0.48,0,0.72c-0.26-0.01-0.54,0.04-0.72-0.24C26.12,25.26,26.46,25.26,26.81,25.26z"
				/>
			<path class="st155" d="M25.86,25.74c0,0.08,0,0.16,0,0.24c-0.24-0.02-0.49-0.04-0.56-0.31c-0.05-0.17,0.1-0.31,0.25-0.32
				C25.81,25.33,25.83,25.55,25.86,25.74z"/>
			<path class="st110" d="M34.69,37.44c0.46,0.02,0.7,0.26,0.72,0.72c-0.35,0.4-0.25,0.87-0.06,1.24c0.6,1.16,0.77,2.41,0.95,3.67
				c0.1,0.69,0.39,1.09,1.13,1.05c0.34,0.17,0.81,0.25,0.54,0.82c-1.22,0.04-2.44,0.12-3.57-0.48c0.3-0.26,0.63-0.39,0.23-0.96
				c-1.14-1.62-0.74-3.5-0.63-5.31C34.02,37.81,34.33,37.57,34.69,37.44L34.69,37.44z"/>
			<path class="st156" d="M38.52,36.97c0.1-0.19,0.28-0.23,0.47-0.23c0.29,0.43,0.15,0.89,0.11,1.35c-0.21,0.22-0.77,0.31-0.27,0.78
				c0.03,0.1,0.02,0.2-0.01,0.3c-0.26,0.43-0.33,0.84,0.16,1.17c0.08,0.07,0.16,0.14,0.22,0.22c0.37,0.52,0.04,1.14,0.26,1.69
				c-0.02,0.59-0.15,1.21,0.36,1.69c-0.18,1.02-0.89,0.83-1.58,0.71c-0.43-0.5,0.46-1.22-0.28-1.67c-0.12-0.19-0.15-0.39-0.14-0.61
				c0.01-0.39,0.38-0.7,0.26-1.12c-0.07-0.29-0.29-0.51-0.37-0.8c0.06-0.83-0.02-1.62-0.66-2.25c-0.26-0.26-0.32-0.52,0.05-0.75
				c0.08,0,0.16,0,0.24,0C37.72,37.28,38.19,37.31,38.52,36.97z"/>
			<path class="st157" d="M38.04,42.22c0,0.24,0,0.48,0,0.72c-0.45,0.38-0.95,0.46-1.5,0.24c-0.2-1.12-0.92-2.14-0.65-3.35
				c0.16-0.56,0.32-1.11,0.48-1.67c1.15,0.33,1.03,1.34,1.15,2.21C37.03,41.17,37.64,41.67,38.04,42.22z"/>
			<path class="st158" d="M35.89,39.83c0.03,1.16,1.05,2.11,0.72,3.34c0.33,0.34,1.03,0.46,0.72,1.19
				c-0.81,0.13-1.14-0.16-1.29-1.03c-0.23-1.34-0.25-2.74-1.02-3.97c-0.24-0.38-0.15-0.94,0.41-1.21
				C35.46,38.75,35.57,39.32,35.89,39.83z"/>
			<path class="st159" d="M37.32,40.55c-0.12-0.88-0.24-1.75-0.96-2.39c-0.45-0.93,0.3-0.66,0.72-0.72
				c-0.11,0.24-0.08,0.37,0.15,0.58c0.78,0.69,1.03,1.54,0.57,2.53c-0.06,0.07-0.14,0.11-0.24,0.12
				C37.46,40.66,37.38,40.62,37.32,40.55z"/>
			<path class="st160" d="M34.69,36.97c0-0.08,0-0.16,0-0.24c0.32,0,0.64,0,0.96,0c0.11,0.04,0.25,0.04,0.31,0.12
				c0.09,0.1,0.03,0.21-0.11,0.21C35.46,37.03,35.08,37,34.69,36.97z"/>
			<path class="st161" d="M38.52,36.97c-0.24,0.56-0.73,0.48-1.19,0.48c0.24-0.16,0.48-0.32,0.72-0.48
				C38.2,36.97,38.36,36.97,38.52,36.97z"/>
			<path class="st162" d="M44.73,41.27c-0.32,0.49-0.64,0.22-0.95,0c-0.04-0.04-0.08-0.08-0.11-0.12c-0.1-0.2-0.09-0.41-0.05-0.63
				c0.19-0.53,0.06-0.99-0.31-1.4c-0.18-0.3-0.28-0.61-0.1-0.94c0.27-0.3,0.61-0.17,1.01-0.03c-0.24-0.55-0.79-0.49-1.03-0.84
				c-0.05-0.21-0.49-0.49,0.11-0.58c0.4,0.06,0.86-0.16,1.2,0.24c0.16,0.52,1.01,0.5,0.95,1.19c-0.11,0.11,0.03-0.05-0.08,0.07
				c-0.02,0.03,0.01,0.01,0.08-0.07c0.37,0.48,0.36,0.95,0,1.43C44.97,40.05,45.03,40.74,44.73,41.27L44.73,41.27z"/>
			<path class="st78" d="M44.73,41.26c0.02-0.65-0.2-1.41,0.72-1.67C45.35,40.21,45.35,40.87,44.73,41.26z"/>
			<path class="st163" d="M43.29,38.16c-0.04,0.35,0.08,0.66,0.24,0.96c0.12,0.15,0.17,0.32,0.14,0.52c-0.1,0.27-0.3,0.36-0.58,0.31
				c-0.43-0.19-0.53-0.6-0.67-0.99c-0.07-0.21-0.11-0.42-0.17-0.64c-0.14-0.47-0.45-0.82-0.77-1.16c-0.1-0.13-0.19-0.26-0.1-0.43
				c0.4-0.08,0.8-0.16,1.2-0.24c0.26,0.01,0.54-0.04,0.72,0.24c-0.27,0.16-0.02,0.32,0,0.48C43.33,37.52,43.37,37.84,43.29,38.16z"
				/>
			<path class="st164" d="M43.77,41.26c-0.08,0.32-0.16,0.64-0.24,0.96c0,0.34-0.16,0.58-0.48,0.71c-0.32-0.28-0.48-0.66-0.71-1.01
				c-0.22-0.46-0.39-0.93-0.07-1.42c0.21-0.16,0.44-0.18,0.69-0.1C43.33,40.6,43.45,41.03,43.77,41.26L43.77,41.26z"/>
			<path class="st165" d="M42.58,41.98c0.43,0.18,0.5,0.54,0.48,0.95c-0.08,0.08-0.16,0.16-0.24,0.24
				c-0.24,0.11-0.42-0.01-0.61-0.14c-0.28-0.27-0.55-0.54-0.45-0.98C41.99,41.69,42.29,41.89,42.58,41.98z"/>
			<path class="st166" d="M42.34,42.94c0.16,0.08,0.32,0.16,0.47,0.24c-0.09,0.23-0.25,0.39-0.48,0.48
				c-0.57,0.09-0.78-0.29-0.95-0.72C41.7,42.64,42.02,42.74,42.34,42.94z"/>
			<path class="st167" d="M38.99,38.16c-0.16-0.47-0.17-0.95,0-1.42c0.32,0,0.64-0.01,0.96-0.01c0.06,0.68-0.13,1.37,0.15,2.03
				c-0.15,0.4-0.25,0.8-0.15,1.24c0,0.25-0.05,0.47-0.25,0.64c-0.25,0.13-0.48,0.07-0.7-0.09l0,0c-0.37-0.43-0.35-0.92-0.24-1.43
				c0-0.08,0-0.16,0-0.24C38.71,38.6,38.76,38.35,38.99,38.16z"/>
			<path class="st168" d="M39.95,38.88c-0.41-0.72-0.63-1.43,0-2.15c0.32,0,0.64,0,0.95,0c0.16,0.47,0.17,0.95,0.14,1.44
				c-0.12,0.33-0.28,0.63-0.6,0.81C40.26,39.03,40.09,39.01,39.95,38.88z"/>
			<path class="st169" d="M40.9,38.16c-0.08-0.48-0.39-0.95,0-1.43c0.08,0,0.16,0,0.24,0s0.16,0,0.24,0
				c0.08,0.08,0.16,0.16,0.24,0.24c0.32,0.55-0.1,0.85-0.39,1.2C41.12,38.23,41.01,38.22,40.9,38.16z"/>
			<path class="st170" d="M18.69,17.86c-0.26-0.01-0.54,0.04-0.72-0.24c0.35-0.39,0.82-0.23,1.24-0.23c3.82-0.01,7.64-0.02,11.46,0
				c0.64,0,1.26-0.07,1.88-0.25c0,0.24,0,0.48,0,0.72c-0.23,0.2-0.51,0.27-0.81,0.25c-2.18-0.29-4.35,0.32-6.52,0.1
				c-1.85,0.25-3.69,0.02-5.54-0.01C19.31,18.19,18.97,18.11,18.69,17.86z"/>
			<path class="st171" d="M32.78,18.58c0.16,0,0.32,0,0.48,0c0.74-0.53,1.44-0.27,2.14,0.1c0.3,0.3,0.56,0.62,0.66,1.05
				c0.02,0.63-0.4,0.81-0.91,0.83c-0.82,0.02-1.64,0.13-2.45-0.11c-0.28-0.14-0.37-0.39-0.39-0.67c0-0.33,0.09-0.63,0.23-0.92
				C32.61,18.75,32.69,18.66,32.78,18.58z"/>
			<path class="st172" d="M35.41,18.82c-0.72-0.06-1.41-0.35-2.15-0.24c-0.05-0.57,0.25-0.74,0.78-0.72
				c0.78,0.02,1.55,0.01,2.33,0.01C36.49,18.87,36.35,19.01,35.41,18.82z"/>
			<path class="st173" d="M35.41,18.82c0.69,0.05,1-0.27,0.96-0.96c0.08,0,0.16,0,0.24,0c-0.21,0.6,0.76,1.03,0.24,1.67
				c-0.32,0.29-0.64,0.24-0.96,0C35.4,19.51,35.41,19.16,35.41,18.82z"/>
			<path class="st174" d="M32.78,18.58c0,0.08,0,0.16,0,0.24c-0.29,0.21-0.67,0.26-0.96,0.48c-0.08,0-0.16,0-0.24,0
				c-0.12-0.12-0.21-0.27-0.23-0.44c-0.02-0.11-0.01-0.23,0-0.34c0.04-0.3,0.18-0.53,0.48-0.65c0.24,0,0.48,0,0.72,0
				C32.55,18.12,32.5,18.41,32.78,18.58z"/>
			<path class="st117" d="M22.03,43.65c0.18-0.45-0.75-0.68-0.24-1.19c0.62,0.17,0.79-0.14,0.74-0.69c0.03-0.1,0.08-0.19,0.15-0.28
				c0.56-0.19,1.21,0.48,1.72-0.2c0.53-0.24,0.94-0.97,1.67-0.4c0.12,0.1,0.29,0.01,0.44-0.06c1.27-0.6,1.97-0.15,2.2,1.39
				c-0.61,0.33-1.38,0.31-1.7,1.21c-0.17,0.48-0.9,0.23-1.24-0.12c-0.55-0.55-1.23-0.3-1.85-0.5c0.19,0.54,0.86,0.45,1.14,1.12
				C23.97,43.64,23,43.63,22.03,43.65z"/>
			<path class="st175" d="M28.72,42.22c-0.14-0.54-0.48-0.98-0.89-1.31c-0.22-0.18-0.8-0.51-0.91-0.13
				c-0.36,1.2-0.77,0.51-1.31,0.19c-0.56-0.34-0.55,0.88-1.2,0.53c-0.08-0.09-0.11-0.19-0.09-0.3c0.49-0.95,1.39-1.48,2.19-2.13
				c0.45-0.11,0.55,0.28,0.77,0.52c0.76,0.79,1.43,1.64,1.92,2.63C29.04,42.22,28.88,42.22,28.72,42.22z"/>
			<path class="st176" d="M31.11,44.13c-0.49,0.58-1.1,0.28-1.67,0.24c0-0.04-0.02-0.08-0.01-0.12c0.14-0.51-1.01-0.59-0.47-1.07
				c0.38-0.34,0.63,0.38,0.97,0.58C30.3,43.99,30.82,43.71,31.11,44.13z"/>
			<path class="st177" d="M30.16,42.94c0.09-0.09,0.19-0.17,0.28-0.26c0.08-0.07,0.17-0.11,0.28-0.12c0.1,0.01,0.2,0.04,0.29,0.09
				c0.36,0.28,0.72,0.56,1.13,0.76c0.09,0.06,0.16,0.13,0.23,0.21c0.04,0.1,0.02,0.2-0.06,0.27c-0.16,0-0.32,0-0.48,0.01
				C31.14,43.8,30.58,43.48,30.16,42.94z"/>
			<path class="st178" d="M22.99,44.37c-0.08-0.16-0.16-0.32-0.24-0.48c0.38,0.05,0.88-0.16,0.95,0.48
				C23.47,44.37,23.23,44.37,22.99,44.37z"/>
			<path class="st179" d="M23.94,45.09c0-0.08,0-0.16,0-0.24c0.31,0,0.62,0,0.93,0c0,0.06,0.01,0.13,0.01,0.19
				C24.57,45.05,24.26,45.07,23.94,45.09z"/>
			<path class="st180" d="M34.45,44.37c1.15,0.48,2.37,0.49,3.58,0.47c0.07-0.09,0.16-0.1,0.26-0.05c0.06,0.1,0.06,0.19-0.02,0.27
				c-0.08,0.02-0.16,0.04-0.24,0.06c-0.32,0-0.64,0-0.96,0c-1.15,0.03-2.24-0.28-3.34-0.52c0-0.08,0-0.16,0-0.24
				C33.98,44.17,34.21,44.17,34.45,44.37z"/>
			<path class="st181" d="M34.45,44.37c-0.24,0-0.47,0-0.71,0c-0.48-0.16-0.96-0.32-1.43-0.48c-0.01-0.08-0.01-0.15-0.01-0.23
				c0.41-0.39,0.84-0.12,1.26-0.03c0.44-0.5,0.12-1.09,0.07-1.57c-0.12-1.09-0.08-2.22-0.55-3.25c-0.27-0.58,0.11-1.07,0.19-1.6
				c0.49-0.01,0.99-0.05,1.43,0.24c-1.12,1.8-0.57,5.56,1.01,6.8C35.3,44.5,34.86,44.31,34.45,44.37z"/>
			<path class="st182" d="M18.69,21.92c0.17-0.08,0.34-0.2,0.52-0.23c3.58-0.63,7.19-0.46,10.79-0.5c0.53-0.01,1.11,0.22,1.59-0.23
				c0.04-0.03,0.09-0.05,0.13-0.08c0.41,0.01,0.78-0.14,1.15-0.32c0.16-0.04,0.32-0.03,0.48,0c0.71,0.09,1.4,0.42,2.14,0.17
				c0.12-0.03,0.24-0.05,0.36-0.07c0.51-0.02,1.04-0.1,1.47,0.29c0,0.08,0,0.16,0,0.24c-0.97-0.35-1.57,0.54-2.39,0.72
				c-0.5,0.48-1.11,0.18-1.67,0.24c-0.24,0.08-0.48,0.16-0.72,0.24c-0.27,0-0.51,0.05-0.72,0.24c-0.3-0.37-0.57-0.55-1.16-0.52
				c-2.49,0.09-4.99,0.05-7.49,0.04c-0.48,0-0.95-0.03-1.38,0.24c-0.85,0.43-1.75,0.21-2.63,0.2
				C18.79,22.59,18.45,22.42,18.69,21.92z"/>
			<path class="st183" d="M18.69,21.92c0.08,0.57,0.52,0.47,0.89,0.48c0.74,0.01,1.47,0,2.21,0c-0.44,0.78-1.2,0.46-1.82,0.46
				c-1.2,0.01-2.39-0.32-3.61-0.01c-0.38,0.1-0.84-0.13-1.26-0.21c0-0.16,0-0.32,0-0.48C16.27,21.63,17.5,22.06,18.69,21.92z"/>
			<path class="st184" d="M33.26,22.16c0.5-0.46,1.12-0.15,1.67-0.24c0,0.16,0,0.32,0,0.48c-0.56,0.46-1.11-0.06-1.67,0
				C33.26,22.32,33.26,22.24,33.26,22.16z"/>
			<path class="st185" d="M31.83,22.64c0.18-0.26,0.31-0.67,0.72-0.24C32.37,22.68,32.09,22.63,31.83,22.64z"/>
			<path class="st186" d="M27.28,39.59c-0.24-0.16-0.48-0.32-0.71-0.48c-0.62-0.01-0.46-0.58-0.66-0.9c-0.1-0.33-0.21-0.66-0.28-1
				c-0.1-0.55,0.1-1.09-0.01-1.64c-0.04-0.56,0.02-1.19-0.86-1.09c-1.98-0.14-3.98,0.15-5.95-0.17c-0.72-0.44-1.37-0.9-0.83-1.89
				c0.02-0.93,0.47-0.61,1.09-0.51c2.01,0.33,4.03,0.84,6.08,0.27c0.32-0.31,0.64-0.06,0.96,0c0.08,0,0.16,0,0.24,0
				c0,0.12,0.02,0.24,0,0.36c-0.39,2.39-0.28,4.67,0.94,6.93C27.29,39.51,27.28,39.55,27.28,39.59z"/>
			<path class="st187" d="M17.97,32.43c-0.18,0.73,0.38,1.16,0.72,1.67c0.2,0.3,0.26,0.65-0.13,0.77c-0.63,0.19-0.6-0.45-0.82-0.77
				c-0.48,0.06-0.67-0.2-0.81-0.62c-0.12-0.38-0.13-0.87-0.62-1.05c0.08-0.87,0.41-1.03,0.96-0.3
				C17.47,32.41,17.7,32.41,17.97,32.43z"/>
			<path class="st188" d="M26.09,32.19c-0.32,0.43-0.64-0.09-0.96,0c0.08-0.64,0.58-0.43,0.95-0.48
				C26.09,31.87,26.09,32.03,26.09,32.19z"/>
			<path class="st189" d="M17.73,34.1c0.31,0.13,0.3,0.71,0.75,0.6c0.28-0.07,0.18-0.38,0.2-0.6c1.78,0,3.56-0.01,5.34,0.01
				c0.38,0,0.8-0.13,1.11,0.23c0.39,0.31,0.3,0.9,0.72,1.19c0.4,0.56-0.15,1.11,0,1.67c-0.53,0.33-1.13,0.35-1.72,0.35
				c-1.86-0.01-3.72,0.07-5.58-0.05c-0.23-0.03-0.43-0.12-0.57-0.3c0-0.24,0-0.48,0-0.72c0.52-0.64-0.59-1.05-0.24-1.67
				C17.73,34.58,17.73,34.34,17.73,34.1z"/>
			<path class="st190" d="M17.73,34.82c0.18,0.33,0.34,0.66,0.63,0.93c0.68,0.64,0.16,0.71-0.39,0.74
				c-1.16-0.02-0.56-0.91-0.72-1.43C17.36,34.86,17.54,34.82,17.73,34.82z"/>
			<path class="st191" d="M19.64,39.83c-0.56-0.05-1.11,0.21-1.67,0c0-0.08,0-0.16,0-0.24c0.01-0.07,0.02-0.14,0.02-0.21
				c0.3-0.62,0.83-0.63,1.37-0.46C19.82,39.08,19.93,39.41,19.64,39.83z"/>
			<path class="st41" d="M17.97,39.59c-1.05,0.01-0.65-0.95-0.96-1.43c-0.26-0.32-0.26-0.64,0-0.95c0.08,0,0.16,0,0.24,0
				c0.16,0.14,0.23,0.33,0.27,0.54c0.04,0.2,0.11,0.38,0.26,0.52c0.19,0.19,0.36,0.4,0.37,0.69C18.09,39.17,18.12,39.41,17.97,39.59
				L17.97,39.59z"/>
			<path class="st192" d="M17.25,37.92c0-0.24,0-0.48,0-0.72c0.24,0,0.48,0,0.72,0c0.16,0,0.32,0,0.48,0
				c0.38,0.22,0.54,0.52,0.32,0.95c-0.14,0.14-0.32,0.18-0.52,0.17C17.9,38.24,17.54,38.17,17.25,37.92z"/>
			<path class="st193" d="M17.02,37.21c0,0.32,0,0.64,0,0.95c-0.33-0.03-0.48-0.2-0.46-0.54C16.57,37.33,16.76,37.23,17.02,37.21z"
				/>
			<path class="st194" d="M30.39,42.24c-1.07-0.59-1.57-1.64-2.16-2.62c-0.13-0.34-0.19-0.71-0.47-0.98l0,0
				c-0.29-0.44-0.46-0.91-0.45-1.45c-0.08-0.4-0.16-0.79-0.24-1.19c0.15,0,0.31,0,0.46,0c0.35,0.85,0.65,1.74,1.89,1.45
				c0.2-0.05,0.39,0.08,0.45,0.3c0.13,0.46-0.25,0.6-0.5,0.84c-0.29,0.27-1.15,0.48-0.17,0.98c0.38,0.4,0.71,0.85,1.06,1.27
				C30.59,41.28,30.83,41.74,30.39,42.24z"/>
			<path class="st195" d="M30.39,42.24c0.09-0.6-0.11-1.07-0.58-1.45c-0.37-0.31-0.69-0.66-0.61-1.2c0.32-0.01,0.64-0.23,0.96,0
				c0.31,0.48,0.79,0.81,1.09,1.3c0.67,1.17,0.66,1.18-0.61,1.77c-0.06,0.01-0.13,0.02-0.19,0.02
				C30.42,42.53,30.4,42.39,30.39,42.24z"/>
			<path class="st196" d="M31.11,41.03c-0.22-0.54-1.25-0.55-0.96-1.43c0.03-0.62,0.44-0.74,0.96-0.72
				c0.13-0.05,0.24-0.03,0.35,0.05C32.31,40.2,32.24,40.64,31.11,41.03z"/>
			<path class="st197" d="M31.35,38.88c-0.08,0-0.16,0-0.24,0c-0.22-0.56-0.23-1.11,0-1.67c0.32,0.08,0.64,0.16,0.96,0.24
				c0.7,0.23,0.23,0.49,0.02,0.75c-0.25,0.16-0.45,0.37-0.62,0.61C31.43,38.82,31.39,38.85,31.35,38.88z"/>
			<path class="st198" d="M30.15,36.01c0,0.16,0,0.32,0,0.48c-0.31,0.16-0.19,0.76-0.72,0.72c-0.26-0.18-0.51-0.36-0.24-0.72
				C29.5,36.29,29.35,35.2,30.15,36.01z"/>
			<path class="st199" d="M28.48,34.82c0.35-0.04,0.66,0.08,0.96,0.24c-0.13,0.49-0.13,1.15-0.96,0.72
				C28.48,35.45,28.48,35.14,28.48,34.82z"/>
			<path class="st200" d="M29.2,36.49c0.08,0.24,0.16,0.48,0.24,0.72c-0.36-0.05-0.91,0.16-1-0.31
				C28.35,36.41,28.88,36.53,29.2,36.49z"/>
			<path class="st201" d="M30.16,36.49c0.51-0.04,0.99-0.04,0.72,0.72C30.34,37.26,30.1,37.02,30.16,36.49z"/>
			<path class="st202" d="M31.83,38.16c0.03-0.26,0.72-0.29,0.24-0.72c0.16-0.16,0.32-0.32,0.48-0.48c0.24,0.08,0.48,0.16,0.72,0.24
				c0.11,0.11,0.33,0.26,0.31,0.33c-0.59,1.8,0.72,3.48,0.36,5.26c-0.01,0.07-0.16,1.08-0.19,1.1c-0.17-0.13-0.37-0.24-0.44-0.46
				c-0.15-0.52-0.4-0.97-0.81-1.32c-0.53-1-0.36-2.11-0.47-3.18C32.18,38.62,31.98,38.4,31.83,38.16z"/>
			<path class="st203" d="M27.31,37.2c0.31,0.43,0.46,0.91,0.45,1.45c-0.42-0.29-0.81-0.6-0.67-1.2
				C27.16,37.36,27.23,37.28,27.31,37.2z"/>
			<path class="st204" d="M26.79,35.29c-0.72-0.41-0.74-0.8,0.02-1.19C26.8,34.5,26.79,34.9,26.79,35.29z"/>
			<path class="st205" d="M26.81,36.73c-0.36-0.39-0.35-0.78-0.03-1.19C26.8,35.94,26.8,36.33,26.81,36.73z"/>
			<path class="st206" d="M26.81,25.98c0.24,0,0.48,0,0.72,0c-0.03,0.26,0.07,0.59-0.3,0.66c-0.31,0.06-0.38-0.18-0.42-0.42
				C26.81,26.14,26.81,26.06,26.81,25.98z"/>
			<path class="st44" d="M35.65,20.97c-0.08,0-0.16,0-0.24,0c-0.7-0.24-1.42-0.23-2.15-0.24c-0.16,0-0.32,0-0.48,0
				c-0.4,0.1-0.83-0.01-1.19,0.24l0,0c-2.44-0.2-4.89-0.23-7.34-0.26c-1.93-0.03-3.76,0.75-5.72,0.53
				c-1.26-0.14-2.55,0.07-3.66-0.75c1.21-0.33,2.45-0.15,3.67-0.2c3.21-0.12,6.43-0.03,9.65-0.05c0.77,0,1.54,0.14,2.28-0.38
				c0.37-0.26,0.98-0.02,1.36,0.39c0.24-0.19,0.48-0.19,0.72,0c0.85,0,1.71-0.02,2.56,0.01c0.53,0.01,0.83-0.15,0.78-0.72
				c0.32,0,0.64,0,0.96,0c0.4,0,0.8,0,1.19,0c0,0.24,0,0.48,0,0.72c-0.24,0.08-0.48,0.16-0.72,0.24
				C36.86,20.97,36.11,20.48,35.65,20.97z"/>
			<path class="st207" d="M35.65,20.97c0.35-0.89,1.12-0.31,1.67-0.48c0,0.16,0,0.32,0,0.48C36.76,20.97,36.21,20.97,35.65,20.97z"
				/>
			<path class="st208" d="M38.99,18.82c-0.04,0.24-0.09,0.47-0.41,0.42c-0.07-0.01-0.2-0.17-0.18-0.21
				C38.51,18.74,38.78,18.85,38.99,18.82L38.99,18.82z"/>
			<path class="st209" d="M31.59,18.58c0,0.08,0,0.16,0,0.24c-0.33,0.26-0.74,0.33-1.12,0.33c-4.2,0.06-8.4-0.03-12.6,0.01
				c-0.24,0-0.47-0.07-0.68-0.18c-0.06-0.05-0.11-0.1-0.17-0.16c0.3-0.25,0.09-1.52,1.06-0.43c0.48,0.53,0.57-0.14,0.61-0.52
				c2.15-0.08,4.3,0.26,6.45,0c0.31,0.4,0.76,0.36,1.19,0.36c1.27,0.01,2.53-0.01,3.8,0C30.64,18.22,31.16,18.2,31.59,18.58z"/>
			<path class="st210" d="M16.78,19.53c-0.5-0.06-1.24,0.26-1.19-0.72c0.48,0,0.96,0,1.43,0l0,0
				C17.19,19.14,16.97,19.33,16.78,19.53z"/>
			<path class="st211" d="M42.34,42.94c-0.32,0-0.64,0-0.96,0c-0.08,0-0.16,0-0.24,0c-0.59-0.66-0.97-1.36-0.37-2.22
				c0.18-0.21,0.4-0.34,0.68-0.36c0.93,0.47,0.99,0.73,0.4,1.62C41.82,42.4,42.2,42.61,42.34,42.94z"/>
			<path class="st212" d="M40.9,40.79c-0.56,0.79,0.27,1.42,0.24,2.15c-0.2,0-0.38,0.05-0.48,0.24c-0.64,0.04-0.68-0.44-0.77-0.88
				c0-0.59-0.06-1.17-0.18-1.75c0-0.24,0-0.48,0-0.72c0.29-0.27,0.6-0.27,0.94-0.11C40.98,40.02,41.17,40.35,40.9,40.79z"/>
			<path class="st213" d="M40.19,42.22c-0.02,0.41,0.04,0.77,0.48,0.96c0,0.24,0,0.48,0,0.72l0,0c-0.32,0.25-0.64,0.25-0.96,0
				c-1.31-0.23-0.31-1.12-0.48-1.67C39.55,41.93,39.87,41.98,40.19,42.22z"/>
			<path class="st214" d="M39.71,43.89c0.32,0,0.64,0,0.96,0c0,0.23,0,0.47,0,0.7c-0.45,0.02-0.95-0.06-1.19,0.48
				c-0.4-0.01-0.79-0.01-1.19-0.02c0-0.07,0-0.14-0.01-0.22c-0.07-0.06-0.1-0.11-0.07-0.16c0.03-0.05,0.05-0.08,0.08-0.08
				C38.72,44.3,39.54,44.74,39.71,43.89z"/>
			<path class="st102" d="M18.69,38.16c0.04-0.35-0.08-0.66-0.24-0.95c2.47,0,4.94,0,7.41,0c0.16,0.3,0.28,0.61,0.24,0.95
				c-0.04,0.04-0.08,0.08-0.11,0.12c-0.4,0.32-1.15-0.12-1.37,0.61c-0.03,0.1-0.09,0.19-0.16,0.28c-0.1,0.05-0.2,0.07-0.31,0.07
				c-0.63-0.19-0.98,0.09-1.17,0.67c-0.17,0.07-0.32,0.06-0.46-0.07c-0.96-1.2-1.32-1.18-2.12,0.07c-0.15,0.23-0.34,0.43-0.51,0.65
				c-0.08-0.24-0.16-0.48-0.24-0.72c-0.32-0.93-0.72-0.99-1.67-0.24c0-0.24,0-0.48,0-0.72c0.31-0.38,0.8-0.2,1.23-0.39
				C19.13,38.22,18.81,38.32,18.69,38.16z"/>
			<path class="st215" d="M24.18,39.12c0.08,0,0.16,0,0.24,0c0.32-0.25,0.68-0.33,0.94,0.02c0.3,0.41-0.11,0.63-0.36,0.86
				c-0.23,0.22-0.45,0.45-0.7,0.64c-0.55,0.23-1.2,0.28-1.55,0.87c0,0.08,0,0.16,0,0.24c-0.54,0.31-1,0.13-1.43-0.24
				c-0.2-0.43-0.47-0.9,0.34-0.96c0.47-0.03,0.54-0.51,0.85-0.71c0.16,0,0.32,0,0.48,0C23.34,39.52,23.82,39.42,24.18,39.12z"/>
			<path class="st27" d="M21.32,41.5c0.51-0.08,0.96,0.16,1.43,0.24c-0.14,0.38,0.32,0.87-0.11,1.14c-0.38,0.24-0.57-0.24-0.84-0.42
				c-0.33-0.32-0.77-0.38-1.19-0.48C20.34,41.08,21.1,41.7,21.32,41.5z"/>
			<path class="st203" d="M27.76,38.64c0.45,0.18,0.52,0.55,0.47,0.98C27.96,39.35,27.78,39.03,27.76,38.64z"/>
			<path class="st216" d="M16.78,19.53c0.08-0.24,0.16-0.48,0.24-0.72c4.86,0,9.71,0,14.57,0c0,0.16,0,0.32,0,0.48
				c-2.83,0.49-5.69,0.16-8.53,0.23C20.97,19.57,18.87,19.53,16.78,19.53z"/>
			<path class="st217" d="M31.83,19.29c0.01-0.77,0.52-0.55,0.96-0.48c-0.08,0.24-0.16,0.48-0.24,0.72c-0.24,0.19-0.48,0.19-0.72,0
				C31.83,19.45,31.83,19.37,31.83,19.29z"/>
			<path class="st218" d="M31.83,19.53c0.24,0,0.48,0,0.72,0c0,0.24,0,0.48,0,0.72c-0.24,0-0.48,0-0.72,0
				C31.83,20.01,31.83,19.77,31.83,19.53z"/>
			<path class="st219" d="M38.28,44.61c0,0.08,0,0.16-0.01,0.24c-0.08,0-0.16,0-0.24,0c-0.13-0.32-0.37-0.47-0.71-0.47
				c0.01-0.55-0.81-0.6-0.72-1.19c0.44-0.28,0.94-0.24,1.43-0.24c0.63-0.01,0.92,0.26,0.55,0.84
				C38.42,44.05,38.25,44.28,38.28,44.61z"/>
			<path class="st220" d="M40.19,42.22c-0.32,0-0.64,0-0.95,0c-0.51-0.5,0.19-1.16-0.24-1.67c0.24,0,0.48,0,0.72,0
				C40.6,40.9,40.02,41.67,40.19,42.22z"/>
			<path class="st221" d="M37.32,40.55c0.08,0,0.16,0,0.24,0c0.13,0.35,0.37,0.58,0.72,0.72c0.5,0.46-0.22,0.62-0.24,0.95
				C37.39,41.84,36.5,41.56,37.32,40.55z"/>
			<path class="st222" d="M38.75,39.11c0.43,0.42,0.16,0.96,0.24,1.43C38.09,40.21,37.87,39.75,38.75,39.11z"/>
			<path class="st223" d="M38.99,38.16c-0.01,0.26,0.04,0.54-0.24,0.72c-0.39-0.05-0.77-0.17-0.58-0.65
				C38.35,37.8,38.71,38.03,38.99,38.16z"/>
			<path class="st224" d="M38.28,41.27c-0.25,0.09-0.48,0.32-0.76,0.04s-0.05-0.51,0.04-0.76c0.08,0,0.16,0,0.24,0
				C38.28,40.57,38.28,40.92,38.28,41.27z"/>
			<path class="st78" d="M43.29,38.16c-0.34-0.32-0.34-0.64,0-0.95c0.64,0.3,1.82,0.2,1.03,1.55C43.92,38.7,43.86,37.92,43.29,38.16
				z"/>
			<path class="st225" d="M43.77,41.27c-0.53,0.05-0.77-0.19-0.72-0.72c-0.19-0.24-0.21-0.48,0-0.72c0.2,0,0.37-0.05,0.48-0.24
				c0.63,0.18,0.33,0.59,0.24,0.96C43.77,40.79,43.77,41.03,43.77,41.27z"/>
			<path class="st226" d="M45.44,38.16c-0.04,0.29,0.08,0.69-0.43,0.65c-0.08-0.01-0.21-0.14-0.22-0.22
				C44.75,38.08,45.15,38.2,45.44,38.16L45.44,38.16z"/>
			<path class="st78" d="M43.77,40.55c-0.03-0.33,0.11-0.7-0.24-0.96c0-0.16,0-0.32,0-0.48C44.15,39.5,44.17,39.99,43.77,40.55z"/>
			<path class="st227" d="M43.05,39.83c0,0.24,0,0.48,0,0.72c-0.24,0-0.48,0-0.72,0c-0.38-0.57-1.13-1.11-0.09-1.75
				c0.13-0.03,0.24-0.01,0.33,0.08C42.74,39.2,42.89,39.51,43.05,39.83z"/>
			<path class="st228" d="M41.14,38.16c0.16-0.4,0.32-0.8,0.48-1.19c0.49,0.26,0.63,0.8,0.96,1.19c-0.33,0.29-0.71,0.32-1.11,0.22
				C41.33,38.34,41.23,38.27,41.14,38.16z"/>
			<path class="st229" d="M41.38,38.16c0.4,0,0.8,0,1.19,0c0,0.24,0,0.48,0,0.72h-0.12h-0.12c-0.32,0.16-0.65,0.25-0.99,0.05
				C41.16,38.66,41.19,38.41,41.38,38.16z"/>
			<path class="st230" d="M41.38,38.88c0.32,0,0.64,0,0.95,0c-0.91,0.56,0.26,1.11,0,1.67c-0.08,0.51,0.16,0.96,0.24,1.43
				c-0.24,0.28-0.48-0.08-0.72,0c0.27-0.62,0.52-1.23-0.48-1.43c-0.32-0.31-0.36-0.72-0.4-1.13C41.01,39.16,41.12,38.96,41.38,38.88
				z"/>
			<path class="st231" d="M40.66,39.83c-0.32,0-0.64,0-0.95,0c-0.24-0.4-0.27-0.74,0.24-0.96c0.16,0,0.32,0,0.48,0
				c0.32,0.11,0.43,0.35,0.41,0.67C40.81,39.66,40.75,39.75,40.66,39.83z"/>
			<path class="st232" d="M40.67,39.59c-0.08-0.24-0.16-0.48-0.24-0.72c0.16-0.24,0.32-0.48,0.48-0.72c0.08,0,0.16,0,0.24,0
				s0.16,0,0.24,0c0,0.24,0,0.48,0,0.72c-0.08,0.16-0.16,0.32-0.24,0.48C41.03,39.53,40.93,39.73,40.67,39.59z"/>
			<path class="st233" d="M31.59,18.58c-1.85,0-3.69-0.01-5.54,0c-0.52,0-0.97-0.02-0.91-0.72c1.57-0.05,3.15,0.11,4.72-0.21
				c0.63-0.13,1.35-0.16,1.97,0.21C31.75,18.1,31.67,18.34,31.59,18.58z"/>
			<path class="st234" d="M22.75,41.5c-0.15-1.26,0.78-0.9,1.43-0.96c0.32,0.16,0.46,0.38,0.24,0.72c0,0.08,0,0.16,0,0.24
				C23.86,42.72,23.31,41.6,22.75,41.5z"/>
			<path class="st235" d="M24.42,41.27c-0.08-0.24-0.16-0.48-0.24-0.72c0.23-0.52,0.47-1.03,1.18-1.06
				c-0.32-0.49-0.66-0.32-0.94-0.37c0-0.08,0-0.16,0-0.24c0.44-0.51,1.27-0.11,1.67-0.72l0,0c0.39,0.21,0.09,0.75,0.48,0.96
				C26.18,40.16,25.01,40.42,24.42,41.27z"/>
			<path class="st197" d="M33.5,43.41c0.08,0.16,0.16,0.32,0.24,0.48c-0.48-0.08-0.96-0.15-1.44-0.23v0.01
				c-0.47-0.34-0.98-0.62-1.44-0.96c-0.08,0-0.15-0.02-0.22-0.05c0.07-0.13,0.12-0.35,0.22-0.38c0.83-0.25,0.81-0.56,0.12-0.98
				c-0.01,0,0.09-0.18,0.14-0.27c1.27-0.58,0.33-1.41,0.24-2.15l0,0c0.32-0.24,0.64-0.29,0.96,0c0.01,1.06,0,2.12,0.48,3.1
				C32.85,42.54,32.9,43.12,33.5,43.41z"/>
			<path class="st203" d="M30.85,42.71c0.62,0.12,1.1,0.43,1.44,0.96C31.7,43.52,31.18,43.27,30.85,42.71z"/>
			<path class="st236" d="M33.26,20.73c0.75-0.2,1.53-0.67,2.15,0.24C34.63,21.43,33.96,20.96,33.26,20.73z"/>
			<path class="st237" d="M31.59,20.97c0.26-0.75,0.72-0.55,1.19-0.24C32.49,21.34,32.05,21.23,31.59,20.97z"/>
			<path class="st238" d="M25.85,35.53c-0.79-0.07-0.71-0.66-0.72-1.19C26.48,34.07,25.58,35.16,25.85,35.53z"/>
			<path class="st239" d="M18.69,38.16c0.32-0.14,0.64-0.37,0.98-0.04c0.15,0.15,0.24,0.34,0.12,0.53c-0.21,0.35-0.57,0.2-0.87,0.22
				c-0.32,0.02-0.64,0-0.95,0.01c-0.09-0.23-0.25-0.39-0.48-0.48c0.07-0.6,0.42-0.32,0.72-0.24C18.37,38.16,18.53,38.16,18.69,38.16
				z"/>
			<path class="st102" d="M18.21,38.16c-0.26,0.01-0.54-0.04-0.72,0.24c-0.19-0.1-0.23-0.28-0.24-0.48
				C17.58,37.96,17.96,37.81,18.21,38.16z"/>
			<path class="st240" d="M32.3,38.88c-0.32,0-0.64,0-0.96,0c0-0.35-0.01-0.69,0.48-0.72C32.31,38.18,32.82,38.19,32.3,38.88z"/>
			<path class="st241" d="M33.5,43.41c-1.18-0.01-1.23-0.58-0.72-1.43C33.15,42.4,33.56,42.79,33.5,43.41z"/>
			<path class="st242" d="M40.67,39.59c0.16-0.08,0.32-0.16,0.48-0.24c0.23,0.37,0.27,0.77,0.24,1.19
				c-0.16,0.08-0.32,0.16-0.48,0.24c-0.08-0.32-0.16-0.64-0.24-0.96C40.67,39.75,40.67,39.67,40.67,39.59z"/>
			<path class="st243" d="M24.18,39.12c0.05,0.98-0.69,0.65-1.19,0.72c-0.09-0.27-0.41-0.61-0.07-0.82
				C23.31,38.77,23.79,38.74,24.18,39.12z"/>
			<path class="st244" d="M26.09,38.16c-0.11,1.29-1.11,0.48-1.67,0.72c-0.15-0.33-0.33-0.69,0.29-0.71
				C25.17,38.15,25.63,38.16,26.09,38.16z"/>
		</g>
	</g>
	<path class="st245" d="M42.11,21.07"/>
	<path class="st245" d="M35.39,23.33c-0.91,0.02-1.65,0.26-1.65,0.26c-0.62,0.2-1.19,0.57-2.32,1.31c-0.93,0.61-1.35,0.96-1.57,1.15
		c-0.15,0.13-0.5,0.43-0.87,0.83c-0.73,0.79-1.65,1.78-1.85,3.18c-0.05,0.38-0.09,1.02,0.16,1.83l2.07,2.01l1.09,0.81l0.7,0.46
		l1.51,0.68l1.59,0.45c0.4,0.09,0.87,0.18,1.42,0.26c0.73,0.1,1.33,0.14,1.72,0.15c1.78,0.07,2.66,0.1,3.49-0.24
		c0.2-0.08,0.83-0.37,1.75-0.54c0.09-0.02,0.13-0.03,0.17-0.03c1.47-0.21,2.65,1.33,2.75,1.45c0.29,0.39,0.4,0.69,0.42,0.77
		c0.17,0.52,0.12,0.97,0.09,1.21c-0.06,0.48-0.23,0.88-0.45,1.3c-0.8,1.48-1.91,2.39-2.01,2.47c-0.54,0.44-1.05,0.74-2.19,1.28
		c-2.03,0.97-3.05,1.45-4.59,1.89c-0.95,0.27-2.7,0.75-5.02,0.75c-2.27,0.01-4.22-0.43-5.73-0.95l4.31,2.67l10.46,0.95l5.25-3.12
		l4.15-5.31c0.12-3.4-0.67-5.92-1.25-7.36C45.69,25.8,37.31,23.28,35.39,23.33z"/>
	<path class="st245" d="M36.24,22.97"/>
	<path class="st245" d="M25.46,12.33l-0.31-0.32c0-0.04-0.01-0.09-0.02-0.13c0,0-0.07-0.5-0.25-0.93c0,0-0.43-1.01-2.48-1.72
		c-0.12-0.04-0.24-0.05-0.24-0.05s-0.14-0.01-0.28,0.03c-0.93,0.26-1.58,0.76-1.58,0.76c-1.46,1.12-1.22,0.8-2.04,1.51
		c-0.42,0.37-1.29,1.13-2.21,2.23c-1.57,1.89-2.35,3.68-2.77,4.65c-1.35,3.14-1.61,5.81-1.66,6.43c-0.08,0.97-0.28,4.18,0.99,8.05
		c1.53,4.68,4.27,7.5,4.98,8.21c0.67,0.66,3,2.87,6.68,4.37c0.72,0.29,1.34,0.5,1.79,0.63l-6,2.1l-5.94-5.25L0,37.68l2.08-17.51
		l13.79-11l7.22-2.11l2.2,2.13c0.08,1.42,0.17,3.06,0.17,3.07v0.02C25.46,12.31,25.46,12.32,25.46,12.33L25.46,12.33z"/>
	<path class="st245" d="M25.62,12.27c0.78-0.45,1.86-0.98,3.23-1.34c0.66-0.18,1.03-0.27,1.57-0.27c1.9-0.01,3.23,1.21,3.51,1.47
		c0.19,0.18,0.6,0.91,1.43,2.35c0,0,0.56,0.89,0.75,1.72c0,0,0.01,0.07,0.02,0.07v-0.01c0-0.01-0.01-0.02-0.01-0.03
		c0.05-0.04,0.09-0.07,0.14-0.11l-0.13-3.56l-3.11-3.23h-4.13L25.62,12.27z"/>
	<path class="st245" d="M36.17,16.23c1.02-0.14,1.61,0.02,1.97,0.2c0.04,0.02,0.06,0.03,0.4,0.21c0.82,0.44,0.88,0.46,1.08,0.57
		c0.52,0.3,0.78,0.45,0.96,0.65c0.24,0.27,0.38,0.57,0.65,1.16c0.1,0.22,0.17,0.39,0.23,0.53c0.41,1.04,0.62,1.56,0.63,2.04
		c0.01,0.29,0.03,1.15-0.52,1.56c-0.29,0.22-0.67,0.25-0.88,0.27c-0.38,0.03-0.69-0.03-0.88-0.09l-0.2,1.86l5.09,0.61v-5.59
		l-1.09-4.73l-5.89-0.27L36.17,16.23z"/>
</g>
<g id="Layer_2_00000051377069669787645760000006459799298106219652_">
</g>
</svg>
