<?xml version="1.0" encoding="utf-8"?>
<!-- Generator: Adobe Illustrator 26.0.2, SVG Export Plug-In . SVG Version: 6.00 Build 0)  -->
<svg version="1.1" id="Layer_1" xmlns="http://www.w3.org/2000/svg" xmlns:xlink="http://www.w3.org/1999/xlink" x="0px" y="0px"
	 viewBox="0 0 841.89 595.28" style="enable-background:new 0 0 841.89 595.28;" xml:space="preserve">
<style type="text/css">
	.st0{fill:#C9E0FE;}
</style>
<path class="st0" d="M364.62,132.13c12.85,0.58,24.89,6.76,33.75,19.08c26.46,36.8,52.97,73.57,79.46,110.34
	c9.85,13.68,19.86,27.25,29.54,41.04c12.81,18.27,11.16,41.16-3.89,57.93c-14.84,16.53-38.67,21.01-57.73,10.83
	c-5.6-2.99-10.29-7.06-14-12.21c-36.94-51.25-74-102.42-110.75-153.81c-16.51-23.08-6.26-56.76,20.38-68.67
	C348.09,133.66,355.07,132.03,364.62,132.13z"/>
<path class="st0" d="M667.95,43.64c0.37-20.34,13.77-38.19,33.5-44.62c18.82-6.14,39.35,0.17,51.03,15.62
	c4.31,5.7,6.48,12.29,8.37,19.06c16.46,58.86,33.01,117.7,49.46,176.57c5.53,19.76-0.92,38.69-17.13,50.93
	c-15.48,11.68-36.43,12.9-52.86,2.98c-10.1-6.1-16.48-15.04-19.65-26.34c-11.24-40.12-22.49-80.25-33.75-120.37
	c-5.7-20.3-11.39-40.6-17.13-60.89C668.59,52.33,667.92,48.04,667.95,43.64z"/>
<path class="st0" d="M75.32,421.6c6.28-0.08,13.39,1.63,19.96,5.26c55.85,30.83,111.77,61.54,167.47,92.64
	c24.75,13.82,28.73,47.94,8.69,69.57c-15.68,16.92-39.31,20.68-59.45,9.53c-53.86-29.8-107.71-59.63-161.64-89.3
	c-16.38-9.01-25.42-22.37-24.75-41.21c0.67-18.71,10.21-32.24,26.49-41.08C59.1,423.19,66.48,421.57,75.32,421.6z"/>
</svg>
