<?xml version="1.0" encoding="utf-8"?>
<!-- Generator: Adobe Illustrator 26.0.2, SVG Export Plug-In . SVG Version: 6.00 Build 0)  -->
<svg version="1.1" id="Layer_1" xmlns="http://www.w3.org/2000/svg" xmlns:xlink="http://www.w3.org/1999/xlink" x="0px" y="0px"
	 viewBox="0 0 841.89 595.28" style="enable-background:new 0 0 841.89 595.28;" xml:space="preserve">
<style type="text/css">
	.st0{fill:#C9E0FE;}
</style>
<g>
	<g>
		<path class="st0" d="M480.54,140.95c23.43-0.21,44.03,15.9,48.37,38.09c2.36,12.07-0.51,23.03-7.93,32.84
			c-28.5,37.67-56.97,75.37-85.45,113.06c-7.83,10.37-15.61,20.78-23.5,31.11c-11.67,15.25-31.52,21.34-50.41,15.57
			c-19.42-5.93-33.26-22.59-34.33-41.56c-0.58-10.29,2.73-19.42,8.91-27.58c15.52-20.54,31.02-41.09,46.54-61.63
			c20.57-27.22,41.13-54.45,61.72-81.65C453.35,147.4,465.95,141.08,480.54,140.95z"/>
		<path class="st0" d="M79.11,272.6c-24.09-0.07-45.16-17.55-47.4-40c-0.57-5.69,0.02-11.85,1.62-17.35
			c16.73-57.8,33.71-115.52,50.76-173.22c5.36-18.15,23.06-30.32,43.28-30.24c23.9,0.1,44.5,17.22,47.47,40.13
			c0.68,5.28,0.09,11.1-1.4,16.24c-16.73,57.79-33.71,115.52-50.74,173.23C117,260.64,99.98,272.66,79.11,272.6z"/>
		<path class="st0" d="M817,464.1c-0.54,14.99-8.19,27.18-22.8,34.89c-38.44,20.29-76.92,40.49-115.39,60.73
			c-16.91,8.9-33.69,18.06-50.77,26.62c-26.98,13.52-61.02-2.47-68.08-31.65c-4.35-17.99,3.81-36.16,20.6-45.27
			c13.06-7.09,26.27-13.91,39.42-20.83c41.33-21.77,82.81-43.25,123.93-65.4c24.05-12.95,49.5-4.83,63.05,11.7
			C813.58,442.93,816.91,452.12,817,464.1z"/>
	</g>
</g>
</svg>
